<svg id="Layer_1" data-name="Layer 1" xmlns="http://www.w3.org/2000/svg" xmlns:xlink="http://www.w3.org/1999/xlink" viewBox="0 0 337.41 319.79"><defs><linearGradient id="linear-gradient" x1="316.15" y1="200.73" x2="130.15" y2="14.23" gradientUnits="userSpaceOnUse"><stop offset="0" stop-opacity="0"/><stop offset="0.95"/></linearGradient><linearGradient id="linear-gradient-2" x1="258.62" y1="236.23" x2="131.7" y2="366.05" xlink:href="#linear-gradient"/><linearGradient id="linear-gradient-3" x1="195.55" y1="174.41" x2="224.61" y2="210.37" xlink:href="#linear-gradient"/><linearGradient id="linear-gradient-4" x1="91.16" y1="119.05" x2="84.62" y2="193.65" xlink:href="#linear-gradient"/><linearGradient id="linear-gradient-5" x1="91.72" y1="86.41" x2="85.44" y2="158.09" xlink:href="#linear-gradient"/><linearGradient id="linear-gradient-6" x1="159.05" y1="194.12" x2="472.35" y2="-235.31" xlink:href="#linear-gradient"/><linearGradient id="linear-gradient-7" x1="272.24" y1="194.54" x2="291.61" y2="264.53" xlink:href="#linear-gradient"/><linearGradient id="linear-gradient-8" x1="309.03" y1="233.79" x2="117.1" y2="292.04" xlink:href="#linear-gradient"/><linearGradient id="linear-gradient-9" x1="219.7" y1="208.65" x2="428.97" y2="358.34" xlink:href="#linear-gradient"/><linearGradient id="linear-gradient-10" x1="85.35" y1="159.74" x2="196.58" y2="193.53" xlink:href="#linear-gradient"/><linearGradient id="linear-gradient-11" x1="200.13" y1="266.79" x2="127.11" y2="288.95" xlink:href="#linear-gradient"/><linearGradient id="linear-gradient-12" x1="145.72" y1="151.19" x2="87.14" y2="151" gradientTransform="translate(0.96 1.4)" xlink:href="#linear-gradient"/><linearGradient id="linear-gradient-13" x1="112.66" y1="159.65" x2="110.28" y2="207.85" gradientTransform="translate(-66.63 290.1) rotate(-90)" xlink:href="#linear-gradient"/><linearGradient id="linear-gradient-14" x1="120.96" y1="87.53" x2="124.71" y2="115.14" xlink:href="#linear-gradient"/><linearGradient id="linear-gradient-15" x1="120.2" y1="126.25" x2="124.55" y2="102.03" gradientUnits="userSpaceOnUse"><stop offset="0" stop-opacity="0"/><stop offset="0.86" stop-opacity="0.73"/><stop offset="0.95"/></linearGradient><linearGradient id="linear-gradient-16" x1="195.16" y1="130.54" x2="205.09" y2="75.37" xlink:href="#linear-gradient-15"/><linearGradient id="linear-gradient-17" x1="218.98" y1="88.6" x2="216.81" y2="132.64" gradientTransform="translate(112.43 323.84) rotate(-90)" xlink:href="#linear-gradient"/><linearGradient id="linear-gradient-18" x1="218.98" y1="157.27" x2="216.81" y2="201.3" gradientTransform="translate(43.77 392.5) rotate(-90)" xlink:href="#linear-gradient"/><linearGradient id="linear-gradient-19" x1="-130.78" y1="1786.91" x2="-132.96" y2="1830.95" gradientTransform="translate(-1659.47 69.58) rotate(-90)" xlink:href="#linear-gradient"/><linearGradient id="linear-gradient-20" x1="-24.68" y1="1898.55" x2="-26.87" y2="1942.76" gradientTransform="translate(-1659.47 69.58) rotate(-90)" xlink:href="#linear-gradient"/><linearGradient id="linear-gradient-21" x1="302.36" y1="235.87" x2="300.17" y2="280.09" gradientTransform="translate(26.31 371.89) rotate(-90)" xlink:href="#linear-gradient"/><linearGradient id="linear-gradient-22" x1="265.54" y1="369.08" x2="263.36" y2="413.3" gradientTransform="translate(-143.72 468.29) rotate(-90)" xlink:href="#linear-gradient"/><linearGradient id="linear-gradient-23" x1="379.66" y1="274.12" x2="377.47" y2="318.33" gradientTransform="translate(65.36 487.43) rotate(-90)" xlink:href="#linear-gradient"/><linearGradient id="linear-gradient-24" x1="108.46" y1="305.24" x2="106.28" y2="349.45" gradientTransform="translate(-236.95 247.36) rotate(-90)" xlink:href="#linear-gradient"/><linearGradient id="linear-gradient-25" x1="346.72" y1="325.46" x2="344.53" y2="369.68" gradientTransform="translate(-18.92 505.84) rotate(-90)" xlink:href="#linear-gradient"/><linearGradient id="linear-gradient-26" x1="390.38" y1="369.54" x2="388.2" y2="413.76" gradientTransform="translate(-19.33 593.59) rotate(-90)" xlink:href="#linear-gradient"/><linearGradient id="linear-gradient-27" x1="390.38" y1="327.2" x2="388.2" y2="371.41" gradientTransform="translate(23.01 551.24) rotate(-90)" xlink:href="#linear-gradient"/><linearGradient id="linear-gradient-28" x1="-1247.51" y1="85.29" x2="-1249.69" y2="129.5" gradientTransform="translate(235.3 -935.02) rotate(-90)" xlink:href="#linear-gradient"/><linearGradient id="linear-gradient-29" x1="-1268.58" y1="148.5" x2="-1270.76" y2="192.72" gradientTransform="translate(108.87 -977.16) rotate(-90)" xlink:href="#linear-gradient"/><linearGradient id="linear-gradient-30" x1="-1252.24" y1="253.3" x2="-1254.42" y2="297.52" gradientTransform="translate(-100.73 -944.47) rotate(-90)" xlink:href="#linear-gradient"/><linearGradient id="linear-gradient-31" x1="-1546.77" y1="85.35" x2="-1548.95" y2="129.57" gradientTransform="translate(235.17 -1533.53) rotate(-90)" xlink:href="#linear-gradient"/><linearGradient id="linear-gradient-32" x1="-1253.33" y1="304.16" x2="-1255.51" y2="348.38" gradientTransform="translate(-202.45 -946.65) rotate(-90)" xlink:href="#linear-gradient"/><linearGradient id="linear-gradient-33" x1="-1242.55" y1="327.95" x2="-1244.74" y2="372.16" gradientTransform="translate(-256.78 -935.52) rotate(-90)" xlink:href="#linear-gradient"/><linearGradient id="linear-gradient-34" x1="-1361.74" y1="-133.25" x2="-1363.93" y2="-89.03" gradientTransform="translate(410.87 -1354.79) rotate(-90)" xlink:href="#linear-gradient"/><linearGradient id="linear-gradient-35" x1="-1346.81" y1="-34.02" x2="-1348.99" y2="10.19" gradientTransform="translate(212.41 -1324.92) rotate(-90)" xlink:href="#linear-gradient"/><linearGradient id="linear-gradient-36" x1="-1349.71" y1="71.33" x2="-1351.9" y2="115.55" gradientTransform="translate(1.7 -1330.73) rotate(-90)" xlink:href="#linear-gradient"/><linearGradient id="linear-gradient-37" x1="-93.13" y1="1994.82" x2="-95.31" y2="2039.04" gradientTransform="translate(-1844.27 139.31) rotate(-90)" xlink:href="#linear-gradient"/><linearGradient id="linear-gradient-38" x1="254.24" y1="400.85" x2="252.06" y2="445.06" gradientTransform="translate(-174.39 515.78) rotate(-90)" xlink:href="#linear-gradient"/><linearGradient id="linear-gradient-39" x1="194.3" y1="400.85" x2="192.12" y2="445.06" gradientTransform="translate(-234.33 455.84) rotate(-90)" xlink:href="#linear-gradient"/><linearGradient id="linear-gradient-40" x1="-118.5" y1="2024.55" x2="-120.68" y2="2068.77" gradientTransform="translate(-1873.97 172.4) rotate(-90)" xlink:href="#linear-gradient"/><linearGradient id="linear-gradient-41" x1="137.27" y1="200.99" x2="212.97" y2="294.67" xlink:href="#linear-gradient"/><linearGradient id="linear-gradient-42" x1="168.31" y1="199.62" x2="170.67" y2="254.11" xlink:href="#linear-gradient"/><linearGradient id="linear-gradient-43" x1="81.19" y1="262.68" x2="82.21" y2="286.25" xlink:href="#linear-gradient"/><linearGradient id="linear-gradient-44" x1="242.47" y1="168.89" x2="396.98" y2="157.93" xlink:href="#linear-gradient"/><linearGradient id="linear-gradient-45" x1="277.2" y1="81.43" x2="260.85" y2="383.69" xlink:href="#linear-gradient"/><linearGradient id="linear-gradient-46" x1="229.93" y1="80.78" x2="213.58" y2="383.04" xlink:href="#linear-gradient"/><linearGradient id="linear-gradient-47" x1="237.91" y1="81.21" x2="221.56" y2="383.47" xlink:href="#linear-gradient"/><linearGradient id="linear-gradient-48" x1="229.49" y1="80.75" x2="213.15" y2="383.02" xlink:href="#linear-gradient"/><linearGradient id="linear-gradient-49" x1="221.94" y1="80.35" x2="205.59" y2="382.61" xlink:href="#linear-gradient"/><linearGradient id="linear-gradient-50" x1="230.36" y1="80.8" x2="214.01" y2="383.06" xlink:href="#linear-gradient"/><linearGradient id="linear-gradient-54" x1="274.04" y1="129.41" x2="272.56" y2="146.04" xlink:href="#linear-gradient"/><linearGradient id="linear-gradient-55" x1="278.8" y1="130.17" x2="277.47" y2="145.05" xlink:href="#linear-gradient"/><linearGradient id="linear-gradient-56" x1="273.95" y1="134.88" x2="272.62" y2="149.7" xlink:href="#linear-gradient"/><linearGradient id="linear-gradient-57" x1="278.83" y1="134.23" x2="277.34" y2="150.93" xlink:href="#linear-gradient"/><linearGradient id="linear-gradient-58" x1="274.19" y1="127.7" x2="272.32" y2="148.69" xlink:href="#linear-gradient"/><linearGradient id="linear-gradient-59" x1="278.94" y1="128.64" x2="277.26" y2="147.43" xlink:href="#linear-gradient"/><linearGradient id="linear-gradient-60" x1="274.08" y1="133.35" x2="272.41" y2="152.06" xlink:href="#linear-gradient"/><linearGradient id="linear-gradient-61" x1="278.99" y1="132.51" x2="277.1" y2="153.59" xlink:href="#linear-gradient"/><linearGradient id="linear-gradient-62" x1="287.62" y1="136.38" x2="243.91" y2="143.29" xlink:href="#linear-gradient"/><linearGradient id="linear-gradient-63" x1="172.48" y1="80.58" x2="156.13" y2="382.85" xlink:href="#linear-gradient"/><linearGradient id="linear-gradient-64" x1="125.2" y1="79.93" x2="108.85" y2="382.2" xlink:href="#linear-gradient"/><linearGradient id="linear-gradient-65" x1="133.19" y1="80.36" x2="116.84" y2="382.63" xlink:href="#linear-gradient"/><linearGradient id="linear-gradient-66" x1="124.77" y1="79.91" x2="108.42" y2="382.17" xlink:href="#linear-gradient"/><linearGradient id="linear-gradient-67" x1="117.21" y1="79.5" x2="100.87" y2="381.76" xlink:href="#linear-gradient"/><linearGradient id="linear-gradient-68" x1="125.63" y1="79.96" x2="109.28" y2="382.22" xlink:href="#linear-gradient"/><linearGradient id="linear-gradient-69" x1="172.48" y1="80.58" x2="156.13" y2="382.85" xlink:href="#linear-gradient"/><linearGradient id="linear-gradient-72" x1="169.32" y1="128.57" x2="167.83" y2="145.2" xlink:href="#linear-gradient"/><linearGradient id="linear-gradient-73" x1="174.07" y1="129.33" x2="172.74" y2="144.21" xlink:href="#linear-gradient"/><linearGradient id="linear-gradient-74" x1="169.22" y1="134.04" x2="167.9" y2="148.86" xlink:href="#linear-gradient"/><linearGradient id="linear-gradient-75" x1="174.11" y1="133.38" x2="172.62" y2="150.08" xlink:href="#linear-gradient"/><linearGradient id="linear-gradient-76" x1="169.47" y1="126.86" x2="167.59" y2="147.85" xlink:href="#linear-gradient"/><linearGradient id="linear-gradient-77" x1="174.21" y1="127.79" x2="172.53" y2="146.58" xlink:href="#linear-gradient"/><linearGradient id="linear-gradient-78" x1="169.36" y1="132.51" x2="167.69" y2="151.22" xlink:href="#linear-gradient"/><linearGradient id="linear-gradient-79" x1="174.26" y1="131.66" x2="172.38" y2="152.75" xlink:href="#linear-gradient"/><linearGradient id="linear-gradient-80" x1="182.9" y1="135.54" x2="139.18" y2="142.44" xlink:href="#linear-gradient"/></defs><title>Pipeline 2</title><path d="M151.68,17.25C135.56,28,121.55,41.73,105.33,52.36c-19.77,13-44.12,22.77-53.88,44.3-6.4,14.1-4.9,30.81.84,45.19s15.37,26.83,25.27,38.73c8,9.58,16.39,19.31,20.09,31.19s2.32,24.53,3.08,36.88c1.8,29.21,19.43,59.82,48,66.3,21.24,4.82,42.87-4.36,64.52-6.74,33.77-3.71,67.59,9.26,101.44,6.47,8.84-.73,18.15-2.82,24.39-9.13,3.59-3.63,5.84-8.34,7.73-13.08a121.45,121.45,0,0,0,8.53-41.19c.32-10.6-.71-21.55,3-31.5,3.16-8.6,9.53-15.57,14.49-23.28,20.05-31.13,14.21-76.36-13.09-101.38-19.69-18-48.05-25.83-64.41-46.93-5.23-6.75-9-14.59-14.49-21.12C251.9-7.12,185.89-5.62,151.68,17.25Z" transform="translate(-47.27 -0.65)" fill="#00c5f3" opacity="0.18" style="isolation:isolate"/><path d="M363.83,108.55a8.6,8.6,0,0,1-8.6,8.6h-64a8.46,8.46,0,0,0-8.45,8.45V290a8.58,8.58,0,0,1-8.59,8.59,7.17,7.17,0,0,1-1.24-.09,8.59,8.59,0,0,1-7.36-8.5V125.6A25.67,25.67,0,0,1,291.23,100h64a8.6,8.6,0,0,1,8.51,7.37A8.25,8.25,0,0,1,363.83,108.55Z" transform="translate(-47.27 -0.65)" fill="#00c5f3"/><path d="M363.83,108.55a8.6,8.6,0,0,1-8.6,8.6h-64a8.46,8.46,0,0,0-8.45,8.45V290a8.58,8.58,0,0,1-8.59,8.59,7.17,7.17,0,0,1-1.24-.09,7.17,7.17,0,0,1-.09-1.24l2.34-166.75c0-14.13,4.56-23.3,18.7-23.3h68.6a6.36,6.36,0,0,1,1.24.11A8.25,8.25,0,0,1,363.83,108.55Z" transform="translate(-47.27 -0.65)" fill="url(#linear-gradient)"/><rect x="227.28" y="239.12" width="8.23" height="49.89" fill="url(#linear-gradient-2)"/><path d="M251.93,126.86v28.71a28.74,28.74,0,0,1-28.71,28.71H211.29a11.55,11.55,0,0,0-11.54,11.54v12.37A28.74,28.74,0,0,1,171,236.9H138.71a11.55,11.55,0,0,0-11.54,11.54v56.09a8.59,8.59,0,1,1-17.17,0V248.44a28.73,28.73,0,0,1,28.71-28.71H171a11.56,11.56,0,0,0,11.54-11.54V195.82a28.75,28.75,0,0,1,28.71-28.73h11.93a11.52,11.52,0,0,0,11.52-11.52V126.86a11.52,11.52,0,0,0-11.52-11.52H111A28.75,28.75,0,0,1,82.33,86.62V28.72a8.6,8.6,0,0,1,17.19,0v57.9A11.54,11.54,0,0,0,111,98.15H223.22A28.74,28.74,0,0,1,251.93,126.86Z" transform="translate(-47.27 -0.65)" fill="#00c5f3"/><path d="M217.7,176.08l-.45,8.2h-6a11.55,11.55,0,0,0-11.54,11.54v1.62L191.36,195s.91-9.63,8.53-14.89S217.7,176.08,217.7,176.08Z" transform="translate(-47.27 -0.65)" fill="url(#linear-gradient-3)"/><path d="M311.81,85.58v40.11a23,23,0,0,1-22.91,22.92H95.16a8.6,8.6,0,0,1,0-17.19H288.9a5.73,5.73,0,0,0,5.72-5.73V85.58a5.73,5.73,0,0,0-5.72-5.74h-79A22.94,22.94,0,0,1,187,56.92V31.33a8.59,8.59,0,0,1,17.18,0V56.92a5.74,5.74,0,0,0,5.73,5.74h79A22.94,22.94,0,0,1,311.81,85.58Z" transform="translate(-47.27 -0.65)" fill="#00c5f3"/><rect x="72.09" y="130.98" width="34.63" height="15.99" fill="url(#linear-gradient-4)"/><rect x="76.97" y="97.56" width="26.15" height="15.99" fill="url(#linear-gradient-5)"/><path d="M311.81,93.44v32.25a23,23,0,0,1-22.91,22.92H95.16a8.58,8.58,0,0,1-7.64-4.67,8.57,8.57,0,0,1,7.64-4.66H288.9a5.73,5.73,0,0,0,5.72-5.73v-48a5.73,5.73,0,0,0-5.72-5.74h-79A22.94,22.94,0,0,1,187,56.92V39.19a8.59,8.59,0,0,1,17.18,0v25.6a5.74,5.74,0,0,0,5.73,5.73h79A22.94,22.94,0,0,1,311.81,93.44Z" transform="translate(-47.27 -0.65)" fill="url(#linear-gradient-6)"/><path d="M374.11,204.13a8.59,8.59,0,0,1-8.59,8.58H230.64a6.92,6.92,0,0,0-6.9,6.91v84.91a8.6,8.6,0,0,1-17.19,0V219.62a24.11,24.11,0,0,1,24.09-24.09H365.52A8.6,8.6,0,0,1,374.11,204.13Z" transform="translate(-47.27 -0.65)" fill="#00c5f3"/><rect x="230.01" y="206.55" width="92.52" height="5.09" fill="url(#linear-gradient-7)"/><path d="M265.89,207v5.76H230.64a6.92,6.92,0,0,0-6.9,6.91v84.91a8.57,8.57,0,0,1-4.21,7.38l-1.11.23V309.4s-1.44-81.38,0-92S232,207,232,207Z" transform="translate(-47.27 -0.65)" fill="url(#linear-gradient-8)"/><path d="M374.11,161.78a2.8,2.8,0,0,1,0,.51,8.57,8.57,0,0,1-8.56,8.08h-49a4.72,4.72,0,0,0-4.71,4.71v75a20.7,20.7,0,0,1-20.68,20.67H87.89a3.51,3.51,0,0,1-.56,0,8.58,8.58,0,0,1,.56-17.14H291.13a3.52,3.52,0,0,0,3.5-3.5v-75a21.91,21.91,0,0,1,21.89-21.89h49A8.59,8.59,0,0,1,374.11,161.78Z" transform="translate(-47.27 -0.65)" fill="#00c5f3"/><path d="M374,162.85a8.57,8.57,0,0,1-8.51,7.52h-49a4.72,4.72,0,0,0-4.71,4.71v75a20.66,20.66,0,0,1-20.67,20.67H87.89l-.52-.57a8.59,8.59,0,0,1,8.52-7.53h194a12.72,12.72,0,0,0,12.72-12.73V176c0-12.08,9.82-13.69,21.9-13.69h49Z" transform="translate(-47.27 -0.65)" fill="url(#linear-gradient-9)"/><path d="M146.69,28.72V157.18a29,29,0,0,1-28.92,28.92A20.69,20.69,0,0,0,97.1,206.77v98.66A8.59,8.59,0,0,1,88.51,314c-.24,0-.47,0-.7,0a8.58,8.58,0,0,1-7.89-8.56V206.77a37.89,37.89,0,0,1,37.85-37.85,11.76,11.76,0,0,0,11.74-11.74V28.72a8.59,8.59,0,0,1,17.18,0Z" transform="translate(-47.27 -0.65)" fill="#00c5f3"/><path d="M146.69,28.72V157.18a29,29,0,0,1-28.92,28.92A20.69,20.69,0,0,0,97.1,206.77v98.66A8.59,8.59,0,0,1,88.51,314c-.24,0-.47,0-.7,0a8.43,8.43,0,0,1-1.09-4.18V211.16a37.9,37.9,0,0,1,37.86-37.86,11.76,11.76,0,0,0,11.74-11.74V33.1a8.59,8.59,0,0,1,8.59-8.59q.34,0,.69,0A8.56,8.56,0,0,1,146.69,28.72Z" transform="translate(-47.27 -0.65)" fill="url(#linear-gradient-10)"/><path d="M337.69,320.37a8.59,8.59,0,0,1-8.59-8.59V22.67a8.6,8.6,0,0,1,17.19,0V311.78A8.59,8.59,0,0,1,337.69,320.37Z" transform="translate(-47.27 -0.65)" fill="#00c5f3"/><path d="M169,314.32a8.59,8.59,0,0,1-8.6-8.59V56.79a20.36,20.36,0,0,1,20.34-20.33H284.43a2,2,0,0,0,2-2V17.83a8.6,8.6,0,0,1,17.19,0V34.42a19.25,19.25,0,0,1-19.22,19.22H180.69a3.15,3.15,0,0,0-3.15,3.15V305.73A8.59,8.59,0,0,1,169,314.32Z" transform="translate(-47.27 -0.65)" fill="#00c5f3"/><path d="M171,236.9v77.42s5.24-1.28,6.33-6V235.66Z" transform="translate(-47.27 -0.65)" fill="url(#linear-gradient-11)"/><rect x="77.52" y="18.09" width="27.82" height="9.37" fill="#00c5f3"/><rect x="124.32" y="150.65" width="26.53" height="7.66" rx="2.74" transform="translate(-47.05 -0.85) rotate(0.08)" fill="#00c5f3"/><rect x="124.32" y="150.65" width="26.53" height="3.83" rx="1.88" transform="translate(-47.05 -0.85) rotate(0.08)" fill="url(#linear-gradient-12)"/><rect x="100" y="173.68" width="27.82" height="9.37" rx="3.37" transform="translate(245 63.81) rotate(90)" fill="#00c5f3"/><rect x="97.82" y="175.85" width="27.82" height="5.03" rx="2.51" transform="translate(242.82 65.98) rotate(90)" fill="url(#linear-gradient-13)"/><rect x="113.14" y="88.36" width="17.08" height="8.96" fill="url(#linear-gradient-14)"/><rect x="113.02" y="114.75" width="17.2" height="7.14" fill="url(#linear-gradient-15)"/><path d="M234.74,130.68v-3.82a11.52,11.52,0,0,0-11.52-11.52H154.67l-4.27-1.15.82-8.59H225s9.81,1.44,14.17,9.44a37.06,37.06,0,0,1,4.36,16Z" transform="translate(-47.27 -0.65)" fill="url(#linear-gradient-16)"/><rect x="207.68" y="100.87" width="25.4" height="9.66" rx="3.26" transform="translate(278.81 -115.32) rotate(90)" fill="#00c5f3"/><rect x="205.43" y="103.11" width="25.4" height="5.18" rx="2.44" transform="translate(276.56 -113.08) rotate(90)" fill="url(#linear-gradient-17)"/><rect x="207.68" y="169.54" width="25.4" height="9.66" rx="3.26" transform="translate(347.47 -46.66) rotate(90)" fill="#00c5f3"/><rect x="205.43" y="171.78" width="25.4" height="5.18" rx="2.44" transform="translate(345.23 -44.42) rotate(90)" fill="url(#linear-gradient-18)"/><rect x="131.84" y="194.13" width="25.4" height="9.66" rx="3.26" fill="#00c5f3"/><rect x="131.84" y="198.62" width="25.4" height="5.18" rx="2.44" fill="url(#linear-gradient-19)"/><rect x="243.49" y="88.01" width="25.51" height="9.7" rx="3.28" fill="#00c5f3"/><rect x="243.49" y="92.51" width="25.51" height="5.2" rx="2.45" fill="url(#linear-gradient-20)"/><rect x="268.85" y="65.53" width="25.51" height="9.7" rx="3.28" transform="translate(304.71 -211.87) rotate(90)" fill="#00c5f3"/><rect x="266.6" y="67.78" width="25.51" height="5.2" rx="2.45" transform="translate(302.46 -209.62) rotate(90)" fill="url(#linear-gradient-21)"/><rect x="232.03" y="198.74" width="25.51" height="9.7" rx="3.28" transform="translate(401.11 -41.85) rotate(90)" fill="#00c5f3"/><rect x="229.78" y="200.99" width="25.51" height="5.2" rx="2.45" transform="translate(398.86 -39.6) rotate(90)" fill="url(#linear-gradient-22)"/><rect x="346.15" y="103.77" width="25.51" height="9.7" rx="3.28" transform="translate(420.25 -250.93) rotate(90)" fill="#00c5f3"/><rect x="343.9" y="106.02" width="25.51" height="5.2" rx="2.45" transform="translate(418 -248.68) rotate(90)" fill="url(#linear-gradient-23)"/><rect x="74.96" y="134.9" width="25.51" height="9.7" rx="3.28" transform="translate(180.18 51.39) rotate(90)" fill="#00c5f3"/><rect x="72.71" y="137.15" width="25.51" height="5.2" rx="2.45" transform="translate(177.93 53.64) rotate(90)" fill="url(#linear-gradient-24)"/><rect x="313.21" y="155.12" width="25.51" height="9.7" rx="3.28" transform="translate(438.66 -166.64) rotate(90)" fill="#00c5f3"/><rect x="310.96" y="157.37" width="25.51" height="5.2" rx="2.45" transform="translate(436.41 -164.39) rotate(90)" fill="url(#linear-gradient-25)"/><rect x="356.87" y="199.2" width="25.51" height="9.7" rx="3.28" transform="translate(526.4 -166.23) rotate(90)" fill="#00c5f3"/><rect x="354.62" y="201.45" width="25.51" height="5.2" rx="2.45" transform="translate(524.15 -163.98) rotate(90)" fill="url(#linear-gradient-26)"/><rect x="356.87" y="156.85" width="25.51" height="9.7" rx="3.28" transform="translate(484.06 -208.57) rotate(90)" fill="#00c5f3"/><rect x="354.62" y="159.1" width="25.51" height="5.2" rx="2.45" transform="translate(481.81 -206.32) rotate(90)" fill="url(#linear-gradient-27)"/><rect x="325" y="310.73" width="25.51" height="9.7" rx="3.28" transform="translate(628.24 630.52) rotate(180)" fill="#00c5f3"/><rect x="325" y="310.73" width="25.51" height="5.2" rx="2.45" transform="translate(628.24 626.02) rotate(180)" fill="url(#linear-gradient-28)"/><rect x="261.79" y="289.66" width="25.51" height="9.7" rx="3.28" transform="translate(501.81 588.38) rotate(180)" fill="#00c5f3"/><rect x="261.79" y="289.66" width="25.51" height="5.2" rx="2.45" transform="translate(501.81 583.88) rotate(180)" fill="url(#linear-gradient-29)"/><rect x="156.99" y="306.01" width="25.51" height="9.7" rx="3.28" transform="translate(292.21 621.07) rotate(180)" fill="#00c5f3"/><rect x="156.99" y="306.01" width="25.51" height="5.2" rx="2.45" transform="translate(292.21 616.57) rotate(180)" fill="url(#linear-gradient-30)"/><rect x="324.94" y="11.48" width="25.51" height="9.7" rx="3.28" transform="translate(628.11 32.01) rotate(180)" fill="#00c5f3"/><rect x="324.94" y="11.48" width="25.51" height="5.2" rx="2.45" transform="translate(628.11 27.51) rotate(180)" fill="url(#linear-gradient-31)"/><rect x="106.13" y="304.92" width="25.51" height="9.7" rx="3.28" transform="translate(190.49 618.89) rotate(180)" fill="#00c5f3"/><rect x="106.13" y="304.92" width="25.51" height="5.2" rx="2.45" transform="translate(190.49 614.39) rotate(180)" fill="url(#linear-gradient-32)"/><rect x="75.61" y="305.28" width="25.51" height="9.7" rx="3.28" transform="translate(132.87 618.62) rotate(179.37)" fill="#00c5f3"/><rect x="75.59" y="305.28" width="25.51" height="5.2" rx="2.45" transform="translate(132.79 614.12) rotate(179.37)" fill="url(#linear-gradient-33)"/><rect x="282.04" y="5.2" width="25.51" height="9.7" rx="3.28" transform="translate(542.3 19.45) rotate(180)" fill="#00c5f3"/><rect x="282.04" y="5.2" width="25.51" height="5.2" rx="2.45" transform="translate(542.3 14.95) rotate(180)" fill="url(#linear-gradient-34)"/><rect x="182.81" y="20.13" width="25.51" height="9.7" rx="3.28" transform="translate(343.85 49.32) rotate(180)" fill="#00c5f3"/><rect x="182.81" y="20.13" width="25.51" height="5.2" rx="2.45" transform="translate(343.85 44.82) rotate(180)" fill="url(#linear-gradient-35)"/><rect x="77.45" y="17.23" width="25.51" height="9.7" rx="3.28" transform="translate(133.14 43.51) rotate(180)" fill="#00c5f3"/><rect x="77.45" y="17.23" width="25.51" height="5.2" rx="2.45" transform="translate(133.14 39.01) rotate(180)" fill="url(#linear-gradient-36)"/><rect x="154.97" y="226.18" width="25.51" height="9.7" rx="3.28" fill="#00c5f3"/><rect x="154.97" y="230.69" width="25.51" height="5.2" rx="2.45" fill="url(#linear-gradient-37)"/><rect x="233.12" y="257.53" width="25.51" height="9.7" rx="3.28" transform="translate(460.99 15.86) rotate(90)" fill="#00c5f3"/><rect x="230.87" y="259.78" width="25.51" height="5.2" rx="2.45" transform="translate(458.74 18.11) rotate(90)" fill="url(#linear-gradient-38)"/><rect x="173.18" y="257.53" width="25.51" height="9.7" rx="3.28" transform="translate(401.05 75.8) rotate(90)" fill="#00c5f3"/><rect x="170.93" y="259.78" width="25.51" height="5.2" rx="2.45" transform="translate(398.79 78.05) rotate(90)" fill="url(#linear-gradient-39)"/><rect x="155" y="284.64" width="25.51" height="9.7" rx="3.28" fill="#00c5f3"/><rect x="155" y="289.14" width="25.51" height="5.2" rx="2.45" fill="url(#linear-gradient-40)"/><path d="M199.75,204.54v3.65A28.74,28.74,0,0,1,171,236.9H138.71a11.55,11.55,0,0,0-11.54,11.54V253l-7.31.19V243s2.9-9.92,10.41-10.89,40.2,0,40.2,0,9.69.23,14.05-5.09,8.24-4.12,8-22.52Z" transform="translate(-47.27 -0.65)" fill="url(#linear-gradient-41)"/><path d="M159.94,219.31s12,.91,17.43-1.27v-22H160.3Z" transform="translate(-47.27 -0.65)" fill="url(#linear-gradient-42)"/><polygon points="49.33 262.38 113.02 262.38 113.02 269.88 50.05 269.88 49.33 262.38" fill="url(#linear-gradient-43)"/><rect x="291.71" y="20.78" width="6.83" height="288.75" fill="url(#linear-gradient-44)"/><path d="M274.13,123.33A14.84,14.84,0,1,0,289,138.17,14.85,14.85,0,0,0,274.13,123.33Zm0,26.05a11.21,11.21,0,1,1,11.21-11.21A11.21,11.21,0,0,1,274.13,149.38Z" transform="translate(-47.27 -0.65)" fill="url(#linear-gradient-45)"/><circle cx="226.86" cy="137.52" r="5.03" fill="url(#linear-gradient-46)"/><rect x="229.76" y="136.5" width="10.2" height="2.04" fill="url(#linear-gradient-47)"/><rect x="225.84" y="124.41" width="2.04" height="10.2" fill="url(#linear-gradient-48)"/><rect x="213.75" y="136.5" width="10.2" height="2.04" fill="url(#linear-gradient-49)"/><rect x="225.84" y="140.43" width="2.04" height="10.2" fill="url(#linear-gradient-50)"/><path d="M278.12,138.17a4,4,0,1,1-4-4A4,4,0,0,1,278.12,138.17Z" transform="translate(-47.27 -0.65)" fill="url(#linear-gradient-45)"/><polygon points="225.14 140.5 223.42 137.52 225.14 134.54 228.58 134.54 230.29 137.52 228.58 140.5 225.14 140.5" fill="url(#linear-gradient-45)"/><path d="M275.67,138.17a1.54,1.54,0,1,1-3.07,0,1.54,1.54,0,0,1,3.07,0Z" transform="translate(-47.27 -0.65)" fill="url(#linear-gradient-45)"/><path d="M275.86,123.52a14.84,14.84,0,1,0,14.84,14.83A14.83,14.83,0,0,0,275.86,123.52Zm0,26.05a11.22,11.22,0,1,1,11.21-11.22A11.21,11.21,0,0,1,275.86,149.57Z" transform="translate(-47.27 -0.65)" fill="#00c5f3"/><circle cx="228.58" cy="137.7" r="5.03" fill="#00c5f3"/><rect x="231.49" y="136.68" width="10.2" height="2.04" fill="#00c5f3"/><rect x="227.56" y="124.59" width="2.04" height="10.2" fill="#00c5f3"/><rect x="215.47" y="136.68" width="10.2" height="2.04" fill="#00c5f3"/><rect x="227.56" y="140.61" width="2.04" height="10.2" fill="#00c5f3"/><path d="M279.84,138.35a4,4,0,1,1-4-4A4,4,0,0,1,279.84,138.35Z" transform="translate(-47.27 -0.65)" fill="#00c5f3"/><polygon points="226.86 140.68 225.14 137.7 226.86 134.72 230.3 134.72 232.02 137.7 230.3 140.68 226.86 140.68" fill="#00c5f3"/><path d="M277.39,138.35a1.54,1.54,0,1,1-1.53-1.53A1.53,1.53,0,0,1,277.39,138.35Z" transform="translate(-47.27 -0.65)" fill="#00c5f3"/><path d="M274.83,134.51v.87h-.69L273,137.44v-.1H272A3.94,3.94,0,0,1,274.83,134.51Z" transform="translate(-47.27 -0.65)" fill="url(#linear-gradient-54)"/><path d="M279.7,137.34h-.93v.1l-1.19-2.06h-.71v-.88A4,4,0,0,1,279.7,137.34Z" transform="translate(-47.27 -0.65)" fill="url(#linear-gradient-55)"/><path d="M274.83,141.33v.87a4,4,0,0,1-2.82-2.82H273v-.1l1.19,2.05Z" transform="translate(-47.27 -0.65)" fill="url(#linear-gradient-56)"/><path d="M279.7,139.38a4,4,0,0,1-2.83,2.84v-.89h.71l1.19-2.05v.1Z" transform="translate(-47.27 -0.65)" fill="url(#linear-gradient-57)"/><path d="M274.83,134.51v.87h-.69L273,137.44v-.1H272A3.94,3.94,0,0,1,274.83,134.51Z" transform="translate(-47.27 -0.65)" fill="url(#linear-gradient-58)"/><path d="M279.7,137.34h-.93v.1l-1.19-2.06h-.71v-.88A4,4,0,0,1,279.7,137.34Z" transform="translate(-47.27 -0.65)" fill="url(#linear-gradient-59)"/><path d="M274.83,141.33v.87a4,4,0,0,1-2.82-2.82H273v-.1l1.19,2.05Z" transform="translate(-47.27 -0.65)" fill="url(#linear-gradient-60)"/><path d="M279.7,139.38a4,4,0,0,1-2.83,2.84v-.89h.71l1.19-2.05v.1Z" transform="translate(-47.27 -0.65)" fill="url(#linear-gradient-61)"/><path d="M275.91,123.39a14.85,14.85,0,1,0,14.84,14.85A14.84,14.84,0,0,0,275.91,123.39Zm-1,26a11.24,11.24,0,0,1-10.14-10.14H271a5.09,5.09,0,0,0,3.91,3.91Zm0-7.32a4,4,0,0,1-2.82-2.82H273v-.1l1.19,2.05h.69Zm0-6.82h-.69L273,137.32v-.1h-.94a3.94,3.94,0,0,1,2.82-2.83Zm0-1.95a5,5,0,0,0-3.91,3.91h-6.23a11.25,11.25,0,0,1,10.14-10.16Zm2-6.25a11.26,11.26,0,0,1,10.16,10.16h-6.25a5,5,0,0,0-3.91-3.91Zm0,7.32a4,4,0,0,1,2.83,2.84h-.93v.1l-1.19-2.06h-.71Zm0,6.83h.71l1.19-2.05v.1h.93a4,4,0,0,1-2.83,2.84Zm0,8.19v-6.23a5,5,0,0,0,3.91-3.91h6.25A11.24,11.24,0,0,1,276.93,149.4Z" transform="translate(-47.27 -0.65)" fill="url(#linear-gradient-62)"/><path d="M169.41,122.49a14.84,14.84,0,1,0,14.84,14.84A14.83,14.83,0,0,0,169.41,122.49Zm0,26.05a11.21,11.21,0,1,1,11.21-11.21A11.21,11.21,0,0,1,169.41,148.54Z" transform="translate(-47.27 -0.65)" fill="url(#linear-gradient-63)"/><circle cx="122.13" cy="136.68" r="5.03" fill="url(#linear-gradient-64)"/><rect x="125.04" y="135.66" width="10.2" height="2.04" fill="url(#linear-gradient-65)"/><rect x="121.11" y="123.56" width="2.04" height="10.2" fill="url(#linear-gradient-66)"/><rect x="109.02" y="135.66" width="10.2" height="2.04" fill="url(#linear-gradient-67)"/><rect x="121.11" y="139.58" width="2.04" height="10.2" fill="url(#linear-gradient-68)"/><path d="M173.39,137.33a4,4,0,1,1-4-4A4,4,0,0,1,173.39,137.33Z" transform="translate(-47.27 -0.65)" fill="url(#linear-gradient-69)"/><polygon points="120.41 139.65 118.69 136.68 120.41 133.7 123.85 133.7 125.57 136.68 123.85 139.65 120.41 139.65" fill="url(#linear-gradient-69)"/><path d="M170.94,137.33a1.54,1.54,0,0,1-3.07,0,1.54,1.54,0,1,1,3.07,0Z" transform="translate(-47.27 -0.65)" fill="url(#linear-gradient-69)"/><path d="M170.11,133.67v.86h-.7l-1.19,2.07v-.1h-.94A3.94,3.94,0,0,1,170.11,133.67Z" transform="translate(-47.27 -0.65)" fill="url(#linear-gradient-72)"/><path d="M175,136.5H174v.1l-1.18-2.07h-.71v-.87A3.92,3.92,0,0,1,175,136.5Z" transform="translate(-47.27 -0.65)" fill="url(#linear-gradient-73)"/><path d="M170.11,140.48v.88a4,4,0,0,1-2.83-2.83h.94v-.1l1.19,2Z" transform="translate(-47.27 -0.65)" fill="url(#linear-gradient-74)"/><path d="M175,138.53a4,4,0,0,1-2.82,2.84v-.89h.71l1.18-2v.1Z" transform="translate(-47.27 -0.65)" fill="url(#linear-gradient-75)"/><path d="M170.11,133.67v.86h-.7l-1.19,2.07v-.1h-.94A3.94,3.94,0,0,1,170.11,133.67Z" transform="translate(-47.27 -0.65)" fill="url(#linear-gradient-76)"/><path d="M175,136.5H174v.1l-1.18-2.07h-.71v-.87A3.92,3.92,0,0,1,175,136.5Z" transform="translate(-47.27 -0.65)" fill="url(#linear-gradient-77)"/><path d="M170.11,140.48v.88a4,4,0,0,1-2.83-2.83h.94v-.1l1.19,2Z" transform="translate(-47.27 -0.65)" fill="url(#linear-gradient-78)"/><path d="M175,138.53a4,4,0,0,1-2.82,2.84v-.89h.71l1.18-2v.1Z" transform="translate(-47.27 -0.65)" fill="url(#linear-gradient-79)"/><path d="M171.19,122.54A14.85,14.85,0,1,0,186,137.39,14.84,14.84,0,0,0,171.19,122.54Zm-1,26A11.23,11.23,0,0,1,160,138.41h6.23a5.06,5.06,0,0,0,3.91,3.91Zm0-7.31a4,4,0,0,1-2.83-2.83h.94v-.1l1.19,2.05h.7Zm0-6.83h-.7l-1.19,2.07v-.11h-.94a3.94,3.94,0,0,1,2.83-2.82Zm0-1.95a5,5,0,0,0-3.91,3.91H160a11.23,11.23,0,0,1,10.14-10.15Zm2-6.24a11.23,11.23,0,0,1,10.15,10.15h-6.24a5,5,0,0,0-3.91-3.91Zm0,7.32a3.93,3.93,0,0,1,2.82,2.83h-.93v.11l-1.18-2.07h-.71Zm0,6.82h.71l1.18-2.05v.1H175a4,4,0,0,1-2.82,2.84Zm0,8.19v-6.23a5.06,5.06,0,0,0,3.91-3.91h6.24A11.23,11.23,0,0,1,172.21,148.55Z" transform="translate(-47.27 -0.65)" fill="url(#linear-gradient-80)"/></svg>