<svg xmlns="http://www.w3.org/2000/svg" xmlns:xlink="http://www.w3.org/1999/xlink" viewBox="0 0 400 300"><defs><linearGradient id="linear-gradient" x1="247.1" y1="124.21" x2="236.31" y2="107.58" gradientUnits="userSpaceOnUse"><stop offset="0" stop-color="#fff" stop-opacity="0"/><stop offset="0.99" stop-color="#754c24"/></linearGradient><linearGradient id="linear-gradient-2" x1="166.87" y1="210.63" x2="147.82" y2="182.92" xlink:href="#linear-gradient"/><linearGradient id="linear-gradient-3" x1="315.87" y1="196.59" x2="296.81" y2="168.87" xlink:href="#linear-gradient"/><linearGradient id="linear-gradient-4" x1="253.58" y1="251" x2="234.53" y2="223.28" xlink:href="#linear-gradient"/><linearGradient id="linear-gradient-5" x1="79.81" y1="214.99" x2="60.75" y2="187.28" xlink:href="#linear-gradient"/></defs><title>141-150</title><g style="isolation:isolate"><g id="Layer_2" data-name="Layer 2"><path d="M372.39,173c-38.57,20.7-152,86.18-187.77,106.85a21.68,21.68,0,0,1-21.79,0l-136-79.42c-5.41-3.16-3.68-9.13,1.77-12.22L218.38,77.93a6.49,6.49,0,0,1,6.41,0l147.73,84A6.33,6.33,0,0,1,372.39,173Z" fill="#eac2a7"/><path d="M245,101.48l-31.4,18,27.68,13.34,30.42-17.46C262.72,110.92,253.63,106.64,245,101.48Z" opacity="0.63" fill="url(#linear-gradient)" style="mix-blend-mode:multiply"/><polyline points="102.2 212.28 125.58 223.54 208.74 175.83 185.4 164.63" opacity="0.63" fill="url(#linear-gradient-2)" style="mix-blend-mode:multiply"/><polyline points="251.2 198.24 274.57 209.5 357.74 161.78 334.39 150.59" opacity="0.63" fill="url(#linear-gradient-3)" style="mix-blend-mode:multiply"/><polyline points="188.92 252.65 212.29 263.91 295.45 216.19 272.11 205" opacity="0.63" fill="url(#linear-gradient-4)" style="mix-blend-mode:multiply"/><ellipse cx="137.74" cy="174.71" rx="9.86" ry="5.33" fill="#6d3209"/><ellipse cx="175.02" cy="126.9" rx="9.86" ry="5.33" fill="#6d3209"/><ellipse cx="129.97" cy="236.84" rx="9.86" ry="5.33" fill="#6d3209"/><ellipse cx="207.91" cy="189.4" rx="9.86" ry="5.33" fill="#6d3209"/><ellipse cx="97.52" cy="198.04" rx="9.86" ry="5.33" fill="#6d3209"/><ellipse cx="109.67" cy="215.06" rx="9.86" ry="5.33" fill="#6d3209"/><path d="M101.7,198.82V125l-2.23,3.89,104.27-60.2,14.53-8.39-6.77-3.89v61.27a4.54,4.54,0,0,0,6.77,3.89l28.8-16.4h-4.54l74.55,42.68,10.84,6.21v-7.77l-96.85,56.52-13.73,8h4.54l-72.61-42.42c-6.77-4-13.29-2.25-16,5.84-1.82,5.51,6.86,7.87,8.68,2.39.18-.54.39-1.43.78-1.63,0,0,.76.12,0,0,.19,0,.42.25.58.34,1.36.71,2.66,1.56,4,2.33l17.26,10.08L207,212.56l10.39,6.07a4.54,4.54,0,0,0,4.54,0l96.85-56.52,13.73-8a4.54,4.54,0,0,0,0-7.77l-47-26.92-29.27-16.76c-4.32-2.47-9.65-7.31-14.62-4.66-9.4,5-18.56,10.57-27.83,15.84l6.77,3.89V56.44a4.54,4.54,0,0,0-6.77-3.89L135.58,97.67l-38.1,22c-2.88,1.66-4.69,3.07-4.79,6.74-.2,7,0,14,0,20.93v51.49c0,5.79,9,5.8,9,0Z" fill="#00c5f3"/><path d="M174.16,129.47l43,25.78a4.49,4.49,0,0,0,4.54,0l15.43-9.58c3.81-2.36,9.33-4.31,9.52-9.34.51-13.81,0-27.73,0-41.54V79.31l-6.77,3.89,42.6,24.6-2.23-3.89v57.94l2.23-3.89-47.57,28.61a4.54,4.54,0,0,0,0,7.77l32.63,18.42V205l-65.75,37.19-9.57,5.41h4.54L162,227.06c-12.37-7.3-24.56-15.35-37.3-22-9-4.67-17,0-19,9.72-1.16,5.65,7.51,8.07,8.68,2.39s3.34-5.74,7-3.65c4.85,2.79,9.64,5.68,14.46,8.52l44.89,26.47,11.61,6.85a4.55,4.55,0,0,0,4.54,0l65.75-37.19,9.57-5.41a4.54,4.54,0,0,0,0-7.77l-32.63-18.42v7.77l43.05-25.89c1.67-1,4.06-2,5.43-3.42,1.77-1.9,1.32-4.81,1.32-7.2V103.91a4.53,4.53,0,0,0-2.23-3.89l-42.6-24.6a4.54,4.54,0,0,0-6.77,3.89v57.94l2.23-3.89L217.2,147.48h4.54l-43-25.78c-5-3-9.51,4.79-4.54,7.77Z" fill="#00c5f3"/><path d="M205.52,149l-68.08,38.48-9.64,5.45a4.51,4.51,0,0,0-2.23,3.89q.07,10.55.11,21.1c0,7.24-.11,15-.11,22.23a5.32,5.32,0,0,0,.22,1.5,12.36,12.36,0,0,0,8.6-.15,5.49,5.49,0,0,0,.18-1.35c0-7.26.13-15,.11-22.23q0-9.24-.09-18.48l65.84-37.21,2.87-1.62v32.12a4.61,4.61,0,0,0,.27,1.53,15.12,15.12,0,0,0,8.46,0,4.62,4.62,0,0,0,.27-1.54V152.88A4.54,4.54,0,0,0,205.52,149Z" fill="#00c5f3"/><polyline points="108 148.72 106.14 147.57 106.14 140.97 153.26 112.6 155.47 113.5" fill="#ffba93"/><polyline points="137.74 148.11 137.74 150.95 154.09 160.43 159.02 157.48 159.4 154.03" fill="#ca5a00"/><polygon points="143.07 144.6 159.4 154.03 154.42 157.54 137.74 148.11 143.07 144.6" fill="#ff8522"/><polyline points="103.59 168.5 103.59 171.34 119.94 180.82 124.87 177.87 125.25 174.42" fill="#ca5a00"/><polygon points="108.92 164.99 125.25 174.42 120.27 177.93 103.59 168.5 108.92 164.99" fill="#ff8522"/><path d="M147.45,124.28V151.5s.79,1.43,3.59,0V122.82" fill="#ffba93"/><path d="M112.15,144.47v27.22s.79,1.43,3.59,0V143" fill="#ffba93"/><polygon points="108 141.54 108 148.72 155.47 121.1 155.47 113.5 108 141.54" fill="#ff8522"/><path d="M210.05,60.83a8.14,8.14,0,0,0-4.21-4.77l-.34-.13a1,1,0,0,0-.29-.07,2.06,2.06,0,0,0-.71.25l-.9.36-1.8.72,1.11,3c3.66.35,4.72,4.88,2.84,7.63h.34a2.22,2.22,0,0,0,.67-.22c.22-.08.43-.17.64-.27a6.38,6.38,0,0,0,1.13-.69,5.19,5.19,0,0,0,1.78-2.35,5,5,0,0,0-.22-3.33Z" fill="#174b6b"/><path d="M203.1,57c-2-.33-2.63,1.55-2.34,3.17,4.16-.7,6.17,5.55,3.83,8h0a3.91,3.91,0,0,0,3.67-3.81C208.53,61.12,206.53,57.62,203.1,57Z" fill="#08283f"/><path d="M167.84,84.9a8.14,8.14,0,0,0-4.21-4.77l-.34-.13a1,1,0,0,0-.29-.07,2.06,2.06,0,0,0-.71.25l-.9.36-1.8.72,1.11,3c3.66.35,4.72,4.88,2.84,7.63h.34a2.22,2.22,0,0,0,.67-.22c.22-.08.43-.17.64-.27a6.38,6.38,0,0,0,1.13-.69,5.19,5.19,0,0,0,1.78-2.35,5,5,0,0,0-.22-3.33Z" fill="#174b6b"/><path d="M160.9,81.1c-2-.33-2.63,1.55-2.34,3.17,4.16-.7,6.17,5.55,3.83,8h0A3.91,3.91,0,0,0,166,88.49C166.32,85.19,164.33,81.68,160.9,81.1Z" fill="#08283f"/><path d="M106.38,120.57a8.14,8.14,0,0,0-4.21-4.77l-.34-.13a1,1,0,0,0-.29-.07,2.06,2.06,0,0,0-.71.25l-.9.36-1.8.72,1.11,3c3.66.35,4.72,4.88,2.84,7.63h.34a2.22,2.22,0,0,0,.67-.22c.22-.08.43-.17.64-.27a6.38,6.38,0,0,0,1.13-.69,5.19,5.19,0,0,0,1.78-2.35,5,5,0,0,0-.22-3.33Z" fill="#174b6b"/><path d="M99.43,116.77c-2-.33-2.63,1.55-2.34,3.17,4.16-.7,6.17,5.55,3.83,8h0a3.91,3.91,0,0,0,3.67-3.81C104.85,120.85,102.86,117.35,99.43,116.77Z" fill="#08283f"/><path d="M183.28,167.32a8.14,8.14,0,0,0-4.21-4.77l-.34-.13a1,1,0,0,0-.29-.07,2.06,2.06,0,0,0-.71.25l-.9.36-1.8.72,1.11,3c3.66.35,4.72,4.88,2.84,7.63h.34a2.22,2.22,0,0,0,.67-.22c.22-.08.43-.17.64-.27a6.38,6.38,0,0,0,1.13-.69,5.19,5.19,0,0,0,1.78-2.35,5,5,0,0,0-.22-3.33Z" fill="#174b6b"/><path d="M176.33,163.53c-2-.33-2.63,1.55-2.34,3.17,4.16-.7,6.17,5.55,3.83,8h0a3.91,3.91,0,0,0,3.67-3.81C181.76,167.61,179.76,164.1,176.33,163.53Z" fill="#08283f"/><path d="M140.85,191.28a8.14,8.14,0,0,0-4.21-4.77l-.34-.13a1,1,0,0,0-.29-.07,2.06,2.06,0,0,0-.71.25l-.9.36-1.8.72,1.11,3c3.66.35,4.72,4.88,2.84,7.63h.34a2.22,2.22,0,0,0,.67-.22c.22-.08.43-.17.64-.27a6.38,6.38,0,0,0,1.13-.69,5.19,5.19,0,0,0,1.78-2.35,5,5,0,0,0-.22-3.33Z" fill="#174b6b"/><path d="M133.9,187.48c-2-.33-2.63,1.55-2.34,3.17,4.16-.7,6.17,5.55,3.83,8h0a3.91,3.91,0,0,0,3.67-3.81C139.33,191.56,137.33,188.06,133.9,187.48Z" fill="#08283f"/><path d="M232.29,207.66a8.14,8.14,0,0,0-4.21-4.77l-.34-.13a1,1,0,0,0-.29-.07,2.06,2.06,0,0,0-.71.25l-.9.36L224,204l1.11,3c3.66.35,4.72,4.88,2.84,7.63h.34a2.22,2.22,0,0,0,.67-.22c.22-.08.43-.17.64-.27a6.38,6.38,0,0,0,1.13-.69,5.19,5.19,0,0,0,1.78-2.35,5,5,0,0,0-.22-3.33Z" fill="#174b6b"/><path d="M225.34,203.87c-2-.33-2.63,1.55-2.34,3.17,4.16-.7,6.17,5.55,3.83,8h0a3.91,3.91,0,0,0,3.67-3.81C230.76,207.95,228.77,204.44,225.34,203.87Z" fill="#08283f"/><path d="M271.77,186.23a8.14,8.14,0,0,0-4.21-4.77l-.34-.13a1,1,0,0,0-.29-.07,2.06,2.06,0,0,0-.71.25l-.9.36-1.8.72,1.11,3c3.66.35,4.72,4.88,2.84,7.63h.34a2.22,2.22,0,0,0,.67-.22c.22-.08.43-.17.64-.27a6.38,6.38,0,0,0,1.13-.69,5.19,5.19,0,0,0,1.78-2.35,5,5,0,0,0-.22-3.33Z" fill="#174b6b"/><path d="M264.82,182.44c-2-.33-2.63,1.55-2.34,3.17,4.16-.7,6.17,5.55,3.83,8h0a3.91,3.91,0,0,0,3.67-3.81C270.25,186.52,268.25,183,264.82,182.44Z" fill="#08283f"/><path d="M317.36,157.23a8.14,8.14,0,0,0-4.21-4.77l-.34-.13a1,1,0,0,0-.29-.07,2.06,2.06,0,0,0-.71.25l-.9.36-1.8.72,1.11,3c3.66.35,4.72,4.88,2.84,7.63h.34a2.22,2.22,0,0,0,.67-.22c.22-.08.43-.17.64-.27a6.38,6.38,0,0,0,1.13-.69,5.19,5.19,0,0,0,1.78-2.35,5,5,0,0,0-.22-3.33Z" fill="#174b6b"/><path d="M310.41,153.43c-2-.33-2.63,1.55-2.34,3.17,4.16-.7,6.17,5.55,3.83,8h0a3.91,3.91,0,0,0,3.67-3.81C315.84,157.51,313.84,154,310.41,153.43Z" fill="#08283f"/><path d="M260.56,213.84a8.14,8.14,0,0,0-4.21-4.77l-.34-.13a1,1,0,0,0-.29-.07,2.06,2.06,0,0,0-.71.25l-.9.36-1.8.72,1.11,3c3.66.35,4.72,4.88,2.84,7.63h.34a2.22,2.22,0,0,0,.67-.22c.22-.08.43-.17.64-.27a6.38,6.38,0,0,0,1.13-.69,5.19,5.19,0,0,0,1.78-2.35,5,5,0,0,0-.22-3.33Z" fill="#174b6b"/><path d="M253.61,210c-2-.33-2.63,1.55-2.34,3.17,4.16-.7,6.17,5.55,3.83,8h0a3.91,3.91,0,0,0,3.67-3.81C259,214.13,257,210.62,253.61,210Z" fill="#08283f"/><path d="M209,244.78a8.14,8.14,0,0,0-4.21-4.77l-.34-.13a1,1,0,0,0-.29-.07,2.06,2.06,0,0,0-.71.25l-.9.36-1.8.72,1.11,3c3.66.35,4.72,4.88,2.84,7.63H205a2.22,2.22,0,0,0,.67-.22c.22-.08.43-.17.64-.27a6.38,6.38,0,0,0,1.13-.69,5.19,5.19,0,0,0,1.78-2.35,5,5,0,0,0-.22-3.33Z" fill="#174b6b"/><path d="M202,241c-2-.33-2.63,1.55-2.34,3.17,4.16-.7,6.17,5.55,3.83,8h0a3.91,3.91,0,0,0,3.67-3.81C207.46,245.07,205.47,241.57,202,241Z" fill="#08283f"/><path d="M139.53,220a8.14,8.14,0,0,1,4.21-4.77l.34-.13a1,1,0,0,1,.29-.07,2.06,2.06,0,0,1,.71.25l.9.36,1.8.72-1.11,3c-3.66.35-4.72,4.88-2.84,7.63h-.34a2.22,2.22,0,0,1-.67-.22c-.22-.08-.43-.17-.64-.27a6.38,6.38,0,0,1-1.13-.69,5.19,5.19,0,0,1-1.78-2.35,5,5,0,0,1,.22-3.33Z" fill="#174b6b"/><path d="M146.48,216.23c2-.33,2.63,1.55,2.34,3.17-4.16-.7-6.17,5.55-3.83,8h0a3.91,3.91,0,0,1-3.67-3.81C141.06,220.31,143.05,216.81,146.48,216.23Z" fill="#08283f"/><path d="M141.75,170.68A8.14,8.14,0,0,1,146,165.9l.34-.13a1,1,0,0,1,.29-.07,2.06,2.06,0,0,1,.71.25l.9.36,1.8.72-1.11,3c-3.66.35-4.72,4.88-2.84,7.63h-.34a2.22,2.22,0,0,1-.67-.22c-.22-.08-.43-.17-.64-.27a6.38,6.38,0,0,1-1.13-.69,5.19,5.19,0,0,1-1.78-2.35,5,5,0,0,1,.22-3.33Z" fill="#174b6b"/><path d="M148.7,166.88c2-.33,2.63,1.55,2.34,3.17-4.16-.7-6.17,5.55-3.83,8h0a3.91,3.91,0,0,1-3.67-3.81C143.28,171,145.27,167.46,148.7,166.88Z" fill="#08283f"/><path d="M179.83,191.07A8.14,8.14,0,0,1,184,186.3l.34-.13a1,1,0,0,1,.29-.07,2.06,2.06,0,0,1,.71.25l.9.36,1.8.72-1.11,3c-3.66.35-4.72,4.88-2.84,7.63h-.34a2.22,2.22,0,0,1-.67-.22c-.22-.08-.43-.17-.64-.27a6.38,6.38,0,0,1-1.13-.69,5.19,5.19,0,0,1-1.78-2.35,5,5,0,0,1,.22-3.33Z" fill="#174b6b"/><path d="M186.78,187.27c2-.33,2.63,1.55,2.34,3.17-4.16-.7-6.17,5.55-3.83,8h0a3.91,3.91,0,0,1-3.67-3.81C181.35,191.35,183.35,187.85,186.78,187.27Z" fill="#08283f"/><path d="M179.28,127.31a8.14,8.14,0,0,1,4.21-4.77l.34-.13a1,1,0,0,1,.29-.07,2.06,2.06,0,0,1,.71.25l.9.36,1.8.72-1.11,3c-3.66.35-4.72,4.88-2.84,7.63h-.34a2.22,2.22,0,0,1-.67-.22c-.22-.08-.43-.17-.64-.27a6.38,6.38,0,0,1-1.13-.69,5.19,5.19,0,0,1-1.78-2.35,5,5,0,0,1,.22-3.33Z" fill="#174b6b"/><path d="M186.23,123.52c2-.33,2.63,1.55,2.34,3.17-4.16-.7-6.17,5.55-3.83,8h0a3.91,3.91,0,0,1-3.67-3.81C180.81,127.6,182.8,124.1,186.23,123.52Z" fill="#08283f"/><path d="M254.34,108.2a8.14,8.14,0,0,1,4.21-4.77l.34-.13a1,1,0,0,1,.29-.07,2.06,2.06,0,0,1,.71.25l.9.36,1.8.72-1.11,3c-3.66.35-4.72,4.88-2.84,7.63h-.34a2.22,2.22,0,0,1-.67-.22c-.22-.08-.43-.17-.64-.27a6.38,6.38,0,0,1-1.13-.69,5.19,5.19,0,0,1-1.78-2.35,5,5,0,0,1,.22-3.33Z" fill="#174b6b"/><path d="M261.29,104.41c2-.33,2.63,1.55,2.34,3.17-4.16-.7-6.17,5.55-3.83,8h0a3.91,3.91,0,0,1-3.67-3.81C255.86,108.49,257.86,105,261.29,104.41Z" fill="#08283f"/><path d="M244.53,82.06a8.14,8.14,0,0,1,4.21-4.77l.34-.13a1,1,0,0,1,.29-.07,2.06,2.06,0,0,1,.71.25l.9.36,1.8.72-1.11,3c-3.66.35-4.72,4.88-2.84,7.63h-.34a2.22,2.22,0,0,1-.67-.22c-.22-.08-.43-.17-.64-.27a6.38,6.38,0,0,1-1.13-.69,5.19,5.19,0,0,1-1.78-2.35,5,5,0,0,1,.22-3.33Z" fill="#174b6b"/><path d="M251.48,78.26c2-.33,2.63,1.55,2.34,3.17-4.16-.7-6.17,5.55-3.83,8h0a3.91,3.91,0,0,1-3.67-3.81C246.05,82.34,248,78.84,251.48,78.26Z" fill="#08283f"/><path d="M272,97.83a8.14,8.14,0,0,1,4.21-4.77l.34-.13a1,1,0,0,1,.29-.07,2.06,2.06,0,0,1,.71.25l.9.36,1.8.72-1.11,3c-3.66.35-4.72,4.88-2.84,7.63H276a2.22,2.22,0,0,1-.67-.22c-.22-.08-.43-.17-.64-.27a6.38,6.38,0,0,1-1.13-.69,5.19,5.19,0,0,1-1.78-2.35,5,5,0,0,1,.22-3.33Z" fill="#174b6b"/><path d="M278.95,94c2-.33,2.63,1.55,2.34,3.17-4.16-.7-6.17,5.55-3.83,8h0a3.91,3.91,0,0,1-3.67-3.81C273.52,98.12,275.51,94.61,278.95,94Z" fill="#08283f"/><path d="M313.91,141a8.14,8.14,0,0,1,4.21-4.77l.34-.13a1,1,0,0,1,.29-.07,2.06,2.06,0,0,1,.71.25l.9.36,1.8.72-1.11,3c-3.66.35-4.72,4.88-2.84,7.63h-.34a2.22,2.22,0,0,1-.67-.22c-.22-.08-.43-.17-.64-.27a6.38,6.38,0,0,1-1.13-.69,5.19,5.19,0,0,1-1.78-2.35,5,5,0,0,1,.22-3.33Z" fill="#174b6b"/><path d="M320.86,137.22c2-.33,2.63,1.55,2.34,3.17-4.16-.7-6.17,5.55-3.83,8h0a3.91,3.91,0,0,1-3.67-3.81C315.44,141.3,317.43,137.8,320.86,137.22Z" fill="#08283f"/><path d="M231.18,146.77A8.14,8.14,0,0,0,227,142l-.34-.13a1,1,0,0,0-.29-.07,2.06,2.06,0,0,0-.71.25l-.9.36-1.8.72,1.11,3c3.66.35,4.72,4.88,2.84,7.63h.34a2.22,2.22,0,0,0,.67-.22c.22-.08.43-.17.64-.27a6.38,6.38,0,0,0,1.13-.69,5.19,5.19,0,0,0,1.78-2.35,5,5,0,0,0-.22-3.33Z" fill="#174b6b"/><path d="M224.23,143c-2-.33-2.63,1.55-2.34,3.17,4.16-.7,6.17,5.55,3.83,8h0a3.91,3.91,0,0,0,3.67-3.81C229.65,147.06,227.66,143.55,224.23,143Z" fill="#08283f"/><path d="M227.38,110.19a8.14,8.14,0,0,0-4.21-4.77l-.34-.13a1,1,0,0,0-.29-.07,2.06,2.06,0,0,0-.71.25l-.9.36-1.8.72,1.11,3c3.66.35,4.72,4.88,2.84,7.63h.34a2.22,2.22,0,0,0,.67-.22c.22-.08.43-.17.64-.27a6.38,6.38,0,0,0,1.13-.69,5.19,5.19,0,0,0,1.78-2.35,5,5,0,0,0-.22-3.33Z" fill="#174b6b"/><path d="M220.43,106.4c-2-.33-2.63,1.55-2.34,3.17,4.16-.7,6.17,5.55,3.83,8h0a3.91,3.91,0,0,0,3.67-3.81C225.86,110.48,223.86,107,220.43,106.4Z" fill="#08283f"/><path d="M105.58,215.06s-.45,2.69-.61,4.68c0,0,3.42,1.53,8.86.15l.74-3.8" fill="#00c5f3"/><path d="M92.7,196.57v6.11a18.35,18.35,0,0,0,8.9.25l.1-6.36" fill="#00c5f3"/><path d="M174.45,121.57s-5.35,1.81-4.71,9.83a16.48,16.48,0,0,0,6.23.8s-.15-2.67.53-3" fill="#00c5f3"/><path d="M71.84,212.34,90.4,201.69l-23.34-11.2L50,200.29C57.11,204.56,64.45,208.48,71.84,212.34Z" opacity="0.63" fill="url(#linear-gradient-5)" style="mix-blend-mode:multiply"/><path d="M56.66,202.19,69,194.87a1.89,1.89,0,0,0,.07-3.21L58.87,185a3.16,3.16,0,0,0-3.49,0l-12.12,8.16a1.89,1.89,0,0,0,.08,3.18L53,202.18A3.58,3.58,0,0,0,56.66,202.19Z" fill="#b24800"/><path d="M56.66,201.08,69,193.76a1.89,1.89,0,0,0,.07-3.21l-10.2-6.64a3.16,3.16,0,0,0-3.49,0L43.26,192.1a1.89,1.89,0,0,0,.08,3.18L53,201.07A3.58,3.58,0,0,0,56.66,201.08Z" fill="#df5d00"/><path d="M54.61,171.74l-6.56,20.73s-1.6,5.26,8.23,4.73,8.54-5.41,8.54-5.41l-6.56-20" fill="#ff8522"/><path d="M52.18,179.42a6.1,6.1,0,0,0,4.3,1.34c3.74,0,4.14-1.84,4.14-1.84L62,183.11s-1,2.36-5.51,2.29c-4.1-.07-5.7-1.54-5.7-1.54" fill="#fff"/><path d="M49.75,187.32A9.37,9.37,0,0,0,56.38,190a7.61,7.61,0,0,0,6.69-3.52l1.44,4.42s-2.09,3.24-8.09,3.67c-5.66.41-8.09-2.76-8.09-2.76" fill="#fff"/><path d="M56,171.89h-1.4l-6.56,20.73s-1.49,4.9,7.26,4.76C55.51,188.88,55.94,180.39,56,171.89Z" fill="#ff8522" opacity="0.15" style="mix-blend-mode:multiply"/><ellipse cx="56.48" cy="171.89" rx="1.87" ry="1.07" fill="#ff9f57"/></g></g></svg>