<svg id="Layer_1" data-name="Layer 1" xmlns="http://www.w3.org/2000/svg" xmlns:xlink="http://www.w3.org/1999/xlink" viewBox="0 0 327.7 248.72"><defs><linearGradient id="linear-gradient" x1="126.09" y1="53.57" x2="359.69" y2="295.3" gradientUnits="userSpaceOnUse"><stop offset="0.01" stop-color="#fff"/><stop offset="0.13" stop-color="#fff" stop-opacity="0.69"/><stop offset="1" stop-color="#fff" stop-opacity="0"/></linearGradient><linearGradient id="linear-gradient-2" x1="199.16" y1="284.27" x2="202.89" y2="231.46" gradientUnits="userSpaceOnUse"><stop offset="0.01"/><stop offset="0.13" stop-opacity="0.69"/><stop offset="1" stop-opacity="0"/></linearGradient><linearGradient id="linear-gradient-3" x1="201.98" y1="161.91" x2="199.27" y2="339.31" xlink:href="#linear-gradient"/><linearGradient id="linear-gradient-4" x1="165.77" y1="203.26" x2="253.36" y2="203.26" xlink:href="#linear-gradient"/><linearGradient id="linear-gradient-5" x1="253.14" y1="90.23" x2="204.9" y2="132.38" xlink:href="#linear-gradient-2"/><linearGradient id="linear-gradient-6" x1="242.93" y1="111.17" x2="189.36" y2="133.77" xlink:href="#linear-gradient"/><linearGradient id="linear-gradient-7" x1="165.36" y1="122.07" x2="248.14" y2="184.28" xlink:href="#linear-gradient-2"/><linearGradient id="linear-gradient-8" x1="221.55" y1="157.32" x2="244.03" y2="157.32" xlink:href="#linear-gradient"/><linearGradient id="linear-gradient-9" x1="157.08" y1="88.44" x2="207.46" y2="140.57" xlink:href="#linear-gradient"/><linearGradient id="linear-gradient-10" x1="238" y1="182.69" x2="246.38" y2="182.69" xlink:href="#linear-gradient"/><linearGradient id="linear-gradient-11" x1="211.35" y1="168.61" x2="213.34" y2="168.61" xlink:href="#linear-gradient"/><linearGradient id="linear-gradient-12" x1="225.33" y1="184.32" x2="231.95" y2="184.32" xlink:href="#linear-gradient"/></defs><title>2</title><path d="M385.4,215.29a46.4,46.4,0,0,1-2.3,13.13c-4.61,13.87-15.82,24.53-28,32.63-15.33,10.25-32.27,17.07-50,21.71-18.86,4.93-38.62,7.37-58.47,8.78-10.7.76-21.42,1.21-32,1.57-15.5.54-31.19,1-46.66,0a181.35,181.35,0,0,1-40.09-6.5c-28-8.2-54.4-26.74-64.84-54a2.14,2.14,0,0,1-.13-.38c-6.53-17.26-6.15-36.41-3.1-54.63.48-2.79,1-5.54,1.66-8.3,1.79-7.78,4.48-15.33,9-21.83,7.4-10.64,18.73-17.3,29.75-24.37a136,136,0,0,0,13.54-9.61,106.36,106.36,0,0,0,12.4-12.26C140,85.58,150.85,66.88,168.37,55.64c34.71-22.32,66-5.38,97.34,12,13.58,7.5,27.19,15.09,41.08,19.6,9.64,3.14,20.08,6.12,26.52,13.93,4.7,5.67,6.56,13.06,9.19,20,5.95,15.62,16.1,29.14,25.13,43.26,1.6,2.56,3.2,5.12,4.71,7.72C380,185.19,385.92,200.44,385.4,215.29Z" transform="translate(-57.73 -44.96)" fill="#00c5f3" opacity="0.18" style="isolation:isolate"/><path d="M232.31,250.49c-7.52,7.9-20,12-30.19,14.69s-29.88,1.6-34,14c-1.38,4.22-.45,9.28-.1,13.9a181.35,181.35,0,0,1-40.09-6.5c-28-8.2-54.4-26.74-64.84-54a2.14,2.14,0,0,1-.13-.38c2.15-6.28,7-11.72,12.27-16.08,6.85-5.63,14.66-10.25,20.33-17.07,4.55-5.44,7.49-12.07,11.69-17.77s10.28-10.82,17.35-10.92c3.56-.06,7.08,1.12,10.6.68s7.14-3.75,6-7.11a721.44,721.44,0,0,1-79.67,5.34c1.79-7.78,4.48-15.33,9-21.83,7.4-10.64,18.73-17.3,29.75-24.37a136,136,0,0,0,13.54-9.61,106.36,106.36,0,0,0,12.4-12.26,347.7,347.7,0,0,0,67.82-23.15c4.51,11.84,3.1,25,3.58,37.65s3.81,26.64,14.38,33.62c9,6,21.58,5.67,29.17,13.33,3.78,3.84,5.7,9.12,7,14.37C253.54,199.19,248.87,233.16,232.31,250.49Z" transform="translate(-57.73 -44.96)" fill="#00c5f3" opacity="0.36" style="isolation:isolate"/><path d="M265.71,67.61V157.3H100.29V123.14a136,136,0,0,0,13.54-9.61C134.39,96.62,146,70,168.37,55.64,203.08,33.32,234.36,50.26,265.71,67.61Z" transform="translate(-57.73 -44.96)" fill="#00c5f3"/><path d="M265.71,67.61V157.3H100.29V123.14a136,136,0,0,0,13.54-9.61C134.39,96.62,146,70,168.37,55.64,203.08,33.32,234.36,50.26,265.71,67.61Z" transform="translate(-57.73 -44.96)" fill="url(#linear-gradient)"/><path d="M148.81,249.57,117.55,239l170.18-8.08-18.56,9.82a94.66,94.66,0,0,1-38.52,10.82l-45.83,2.79A94.66,94.66,0,0,1,148.81,249.57Z" transform="translate(-57.73 -44.96)" fill="#fff"/><path d="M148.81,249.57,117.55,239l170.18-8.08-18.56,9.82a94.66,94.66,0,0,1-38.52,10.82l-45.83,2.79A94.66,94.66,0,0,1,148.81,249.57Z" transform="translate(-57.73 -44.96)" fill="url(#linear-gradient-2)"/><path d="M276.54,233.84l-147.57,7a27.36,27.36,0,0,1-26-39l16.52-35,150.31-5,25,25.51C311.3,204.24,300.13,232.72,276.54,233.84Z" transform="translate(-57.73 -44.96)" fill="#fff"/><path d="M253.35,212.52l-102,4.86a18.9,18.9,0,0,1-18-26.95l11.41-24.18,103.9-3.48L266,180.4C277.37,192.06,269.65,211.74,253.35,212.52Z" transform="translate(-57.73 -44.96)" fill="#00c5f3"/><path d="M253.35,212.52l-102,4.86a18.9,18.9,0,0,1-18-26.95l11.41-24.18,103.9-3.48L266,180.4C277.37,192.06,269.65,211.74,253.35,212.52Z" transform="translate(-57.73 -44.96)" fill="url(#linear-gradient-3)"/><path d="M210.57,197.65c-2,2.1-5.4,1.74-8.32,1.55a39.51,39.51,0,0,0-15.73,2.15c1.51,2.75-.71,6.28-3.58,7.54s-6.13,1.05-9.24,1.35-6.54,1.43-7.93,4.24c10.82,3.29,22.4.39,33.66-.63,18-1.63,36.48,1.56,53.93-3.09-.28-3.58-5.92-3.67-7.94-6.64-2.44-3.57,1.35-9.77-2.19-12.25a6.18,6.18,0,0,0-2.8-.87,55.41,55.41,0,0,0-16.81.34C217.67,192.38,214.55,193.5,210.57,197.65Z" transform="translate(-57.73 -44.96)" fill="url(#linear-gradient-4)"/><path d="M230,147.5c2.52-2.29,5.81-4.36,9.13-3.62a1.53,1.53,0,0,1,.88.43,1.49,1.49,0,0,1,.3,1,5.46,5.46,0,0,1-1.87,3.81c-1,1-2.27,1.82-3.33,2.82a11.85,11.85,0,0,0-3.4,5.92,61.34,61.34,0,0,1,8.25-8.57,4.79,4.79,0,0,1,2.42-1.34,1.74,1.74,0,0,1,2,1.44,2.56,2.56,0,0,1-.58,1.43l-6.75,10.06c3.24-2.12,5.21-6.39,9-7a1.82,1.82,0,0,1,1.11.07c1.17.54.68,2.29,0,3.39l-5.9,9.73,4.32-3.93c.64-.59,1.53-1.22,2.31-.82.94.47.72,1.88.22,2.8-1.58,3-4.47,5.12-5.7,8.24-1.06,2.68-.74,5.68-.91,8.57a25,25,0,0,1-1,5.81,3.94,3.94,0,0,1-.72,1.5,3.84,3.84,0,0,1-3.2.91c-6.35-.43-11.85-5.2-14.5-11-2.25-4.91-3.76-12.6-1.95-17.88C221.92,156.11,226.1,151.07,230,147.5Z" transform="translate(-57.73 -44.96)" fill="#e26f54"/><path d="M305.16,282.76c-18.86,4.93-38.62,7.37-58.47,8.78-2.79-13.07-5-26.58-9.22-39-5.64-16.33-11.59-32.56-17.07-49-6.63-19-13.35-39.09-10-59,3.24,0,5.86,2.79,7.08,5.8s1.47,6.31,2.46,9.38c4,12.1,18.64,18.51,22,30.8,1.19,4.29.8,8.84,1.41,13.26,1.19,8.71,6.08,16.46,11.05,23.7,7.62,11.11,15.11,23.66,25.13,32.59Q292.31,271.46,305.16,282.76Z" transform="translate(-57.73 -44.96)" fill="#f38a6b"/><path d="M181.32,159.93V128.64a20.59,20.59,0,0,1,11.9-18.74c4.23-1.94,8.83-3.55,12.47-3.55,9.14,0,25.83,9.3,25.83,9.3a115.15,115.15,0,0,1,7.95,10.18c2.45,3.88-2.91,12.67-2.91,12.67l-15.91-.67-1.42-12.52s-15.57-7.11-18.28-6.43c-1.93.48-.76,26,.07,40.52a9.39,9.39,0,0,1-9.38,9.92h-.93A9.39,9.39,0,0,1,181.32,159.93Z" transform="translate(-57.73 -44.96)" fill="#00c5f3"/><path d="M236.57,138.51l-15.91-.67-1.41-12.52s-15.6-7.11-18.29-6.44c-.8.19-1.09,4.71-1.05,11,0,8.81.6,21.07,1.12,29.56a9.41,9.41,0,0,1-9.39,9.92h-.92a9.08,9.08,0,0,1-3-.48,9.4,9.4,0,0,1-6.44-8.9V128.65a20.66,20.66,0,0,1,6-14.57l0,0a20.18,20.18,0,0,1,5.92-4.13c4.23-2,8.84-3.55,12.49-3.55,9.13,0,25.81,9.28,25.81,9.28a110.66,110.66,0,0,1,7.94,10.19C241.92,129.7,236.57,138.51,236.57,138.51Z" transform="translate(-57.73 -44.96)" fill="url(#linear-gradient-5)"/><path d="M228.53,125.15v12.69h-7.87l-1.41-12.52s-15.6-7.11-18.29-6.44c-.8.19-1.09,4.71-1.05,11l-10.47-8.49-2.18-7.26,0,0c.64-.28,8.52-3.74,20.43,0A65.38,65.38,0,0,1,228.53,125.15Z" transform="translate(-57.73 -44.96)" fill="url(#linear-gradient-6)"/><path d="M201,159.39a9.41,9.41,0,0,1-9.39,9.92h-.92a9.08,9.08,0,0,1-3-.48s-1.86-43.45,1.7-47.49S201,118.88,201,118.88C199,119.36,200.19,144.85,201,159.39Z" transform="translate(-57.73 -44.96)" fill="#00c5f3"/><path d="M201,159.39a9.41,9.41,0,0,1-9.39,9.92h-.92a9.08,9.08,0,0,1-3-.48s-1.86-43.45,1.7-47.49S201,118.88,201,118.88C199,119.36,200.19,144.85,201,159.39Z" transform="translate(-57.73 -44.96)" fill="url(#linear-gradient-7)"/><path d="M385.4,215.29c-33.94-11.4-67.11-25-93.53-49.85-4.13-3.88-8.13-8-12.68-11.34a54.26,54.26,0,0,0-21.45-9.67c-6.22-1.28-12.78-1.5-18.48-4.29-2-1-4-2.66-4-4.87s2-3.32,2.82-5.12a7,7,0,0,0-.61-6.37,13.83,13.83,0,0,0-1.92-2.2c-3.07-3.06-6.19-6.15-10-8.3a4.94,4.94,0,0,1-1.48-1.06,1.52,1.52,0,0,1-.25-1.7,2.13,2.13,0,0,1,1.61-.77c3.42-.5,6.67,0,10,0a48.47,48.47,0,0,1,9.55.53,56.94,56.94,0,0,1,18.22,7.39c8.8,5.26,16.71,12,25.58,17.17,9.48,5.57,19.92,9.32,30.26,13,14.86,7.43,32,12.07,48.48,16.49,1.6,2.56,3.2,5.12,4.71,7.72C380,185.19,385.92,200.44,385.4,215.29Z" transform="translate(-57.73 -44.96)" fill="#f38a6b"/><path d="M221.78,156.13a2.83,2.83,0,0,0-.07,2c.44.92,1.71,1.07,2.69.79a15.52,15.52,0,0,1,2.9-.93c2.48-.21,4.15,2.38,5.32,4.57A99.57,99.57,0,0,0,240,174.27c.94,1.28,2.24,2.68,3.8,2.42,1-2-1.11-4.34-.87-6.59.1-1,.66-1.93.51-2.91-.22-1.48-1.84-2.24-2.81-3.37-2-2.31-1.05-5.95-2.48-8.62-.57-1.06-1.5-1.92-2-3a8.61,8.61,0,0,1-.51-2.3l-1.45-11.31c-.18-1.44-8.85-.3-9.76,1.93-.83,2-.49,5.2-.83,7.38A72.32,72.32,0,0,1,221.78,156.13Z" transform="translate(-57.73 -44.96)" fill="url(#linear-gradient-8)"/><path d="M232.79,51.26l-93.71,106H112L210.7,45.45S224,47.48,232.79,51.26Z" transform="translate(-57.73 -44.96)" fill="url(#linear-gradient-9)"/><path d="M241.9,178.92c-1-.87-1.81-2-3.05-2.42a.75.75,0,0,0-.67,0,.67.67,0,0,0-.14.71c.24.85,1.09,1.33,1.75,1.9,1.71,1.45,2.41,3.73,2.88,5.92a6.07,6.07,0,0,0,1.56,3.49,1.47,1.47,0,0,0,1,.41,1.4,1.4,0,0,0,1.15-1.41,5,5,0,0,0-.5-1.91c-.54-1.38-.42-3.35-1.06-4.59C244.31,180.06,242.74,179.66,241.9,178.92Z" transform="translate(-57.73 -44.96)" fill="url(#linear-gradient-10)"/><path d="M212.64,164.64c-.64,2.14.19,4.4.64,6.58a1.39,1.39,0,0,1,0,.64,1,1,0,0,1-1.17.68,1.16,1.16,0,0,1-.79-1.17" transform="translate(-57.73 -44.96)" fill="url(#linear-gradient-11)"/><path d="M225.33,177.7c2.28.58,3.34,3.23,3.52,5.57s-.15,4.8.79,6.95a1.4,1.4,0,0,0,.35.53,1.07,1.07,0,0,0,1.39-.18,2.48,2.48,0,0,0,.53-1.43,7.3,7.3,0,0,0-.22-2.71" transform="translate(-57.73 -44.96)" fill="url(#linear-gradient-12)"/></svg>