<svg id="Layer_1" data-name="Layer 1" xmlns="http://www.w3.org/2000/svg" viewBox="0 0 400 300"><title>#56 watering plant</title><path d="M148.42,101.78c-1-13.43-15.64-21.34-27.72-15.38-13.12,6.49-29.21,21.36-32.54,55.46-5.82,59.48,78.17,57.47,78.17,57.47l3.29-10.48s-54.94-11.73-53.93-36C116.82,125.71,150,123.67,148.42,101.78Z" fill="#00c5f3"/><path d="M148.42,101.78c-1-13.43-15.64-21.34-27.72-15.38-13.12,6.49-29.21,21.36-32.54,55.46-5.82,59.48,78.17,57.47,78.17,57.47l3.29-10.48s-54.94-11.73-53.93-36C116.82,125.71,150,123.67,148.42,101.78Z" fill="#fff" opacity="0.46"/><ellipse cx="208.04" cy="249.54" rx="168" ry="18.31" fill="#e6e6e6" opacity="0.45"/><path d="M78.74,239.82s1.73,4.71,6,5,5.4,4.49,1.58,5.6-13.73-3.73-13.73-3.73l.23-6.15Z" fill="#00c5f3"/><path d="M119.94,239.82s1.73,4.71,6,5,5.41,4.49,1.59,5.6-13.74-3.73-13.74-3.73l.23-6.15Z" fill="#00c5f3"/><path d="M171.52,50.06s-3.61,6.42-7.39,9.75a3.71,3.71,0,0,1-5.24-.35c-1.65-1.93-3.32-5-1.8-8.69l1.81-6.55A6.63,6.63,0,0,1,165.3,40C170.42,39.91,173.93,46.25,171.52,50.06Z" fill="#f4a28c"/><polygon points="157.31 46.45 139.17 62.4 148.67 71.77 157.82 56.79 157.31 46.45" fill="#f4a28c"/><path d="M169.84,49.28A29.81,29.81,0,0,1,164.53,45a6.15,6.15,0,0,1-3.81,5.57,5,5,0,0,1-6.12-1.77l5.45-7.75A7.53,7.53,0,0,1,167,37.69a25.19,25.19,0,0,1,3.48.51c2.87.63,5.14,4.39,8.19,4.25A1.78,1.78,0,0,1,180.31,45c-1.27,2.62-4.25,6.07-8.36,5.17A6.87,6.87,0,0,1,169.84,49.28Z" fill="#24285b"/><path d="M161.5,50.84s1.55-2.37-.33-3.4-4.15,2.4-2,4.35Z" fill="#f4a28c"/><path d="M169,54l.09,3.51a1.18,1.18,0,0,1-1.66,1.11l-2.62-1.15Z" fill="#f4a28c"/><path d="M157.56,57.22a9,9,0,0,1-1.63-4.54s-4.28,3.11-1,8.83Z" fill="#ce8172" opacity="0.31"/><path d="M313,219.11s4.5-4.75,9.5,0,1.25,9,1.25,9,6.25-3.7,8.5,1a6.35,6.35,0,0,1,.61,3.4,4.05,4.05,0,0,0,4.38,4.31c5-.29,11,.78,12,7.27l-21-1.25-16.94-12.3Z" fill="#e6e6e6"/><path d="M301.24,241.17s16.2-42.34,7.87-106.67c0,0,20.26,59.82-.24,109Z" fill="#a5a5a5"/><path d="M117.35,55.84s35.75,4.87,61.74,32.8-63.77,85.25-63.77,85.25l-47-16.13S65.2,43.76,117.35,55.84Z" fill="#00c5f3"/><path d="M172.57,188.15l-.23-.1-5.74-3a17.06,17.06,0,0,1,15.82-30.22l5.74,3a1.62,1.62,0,1,1-1.5,2.88l-5.74-3a13.81,13.81,0,0,0-12.81,24.48l5.74,3a1.63,1.63,0,0,1-1.28,3Z" fill="#ffd200"/><path d="M123.6,71.94s12.32,25-8.15,47.32,17.8,42.06,17.8,42.06l-17.93,12.57-47-16.13S69,136,69.71,125.54,123.6,71.94,123.6,71.94Z" opacity="0.08"/><path d="M172.57,188.15l-.23-.1-5.74-3a17.06,17.06,0,0,1,15.82-30.22l5.74,3a1.62,1.62,0,1,1-1.5,2.88l-5.74-3a13.81,13.81,0,0,0-12.81,24.48l5.74,3a1.63,1.63,0,0,1-1.28,3Z" fill="#fff" opacity="0.6"/><path d="M123.6,71.94c-2.75-13.18-18.35-19.07-29.53-11.54C81.93,68.57,68,85.46,69.21,119.69c2.17,59.73,85.14,46.55,85.14,46.55l1.86-10.83s-56-4.31-58.24-28.48C95.47,99.87,128.08,93.42,123.6,71.94Z" fill="#00c5f3"/><path d="M123.6,71.94c-2.75-13.18-18.35-19.07-29.53-11.54C81.93,68.57,68,85.46,69.21,119.69c2.17,59.73,85.14,46.55,85.14,46.55l1.86-10.83s-56-4.31-58.24-28.48C95.47,99.87,128.08,93.42,123.6,71.94Z" fill="#fff" opacity="0.46"/><polygon points="188.06 147.51 159.83 188.36 199.27 209.01 213.49 160.82 188.06 147.51" fill="#ffd200"/><path d="M192,194.17l41.53-22.88,10.16,5.32a1.6,1.6,0,0,1-.77,3l-4.62-.09a6.73,6.73,0,0,0-3.58,1l-39.35,23.6Z" fill="#ffd200"/><path d="M155.66,158.61s9.92-3.51,13,2.24-3.87,7.9-14.3,5.39Z" fill="#f4a28c"/><polygon points="188.06 147.51 204.94 148.07 213.49 160.82 188.06 147.51" fill="#ffd200"/><polygon points="188.06 147.51 204.94 148.07 213.49 160.82 188.06 147.51" opacity="0.17"/><path d="M166.83,197.75s9.15,4.52,12.69-1.1l-11.16-3.79Z" fill="#f4a28c"/><g opacity="0.48"><path d="M244.5,173.57s.51-.17,1.44-.41" fill="none" stroke="#c9c9c9" stroke-linecap="round" stroke-linejoin="round" stroke-width="2"/><path d="M250.55,172.28c10.86-1.46,33.46-.52,44,29.32" fill="none" stroke="#c9c9c9" stroke-linecap="round" stroke-linejoin="round" stroke-width="2" stroke-dasharray="2.82 4.7"/><path d="M295.3,203.83c.15.47.3.94.44,1.43" fill="none" stroke="#c9c9c9" stroke-linecap="round" stroke-linejoin="round" stroke-width="2"/></g><path d="M68.27,157.76l2.28,83.07h9.74l5.92-46a19.86,19.86,0,0,1,14.1-16.51l15-4.42Z" fill="#24285b"/><polygon points="115.32 173.89 121.81 240.83 112.4 240.83 91.8 178.26 115.32 173.89" fill="#24285b"/><path d="M316.92,205.43s3-16,26.65-14.85C343.57,190.58,338.61,214.76,316.92,205.43Z" fill="#c9c9c9"/><path d="M305,131.55s-11.71-16-3.78-26,38.31-.65,16.47,26.63Z" fill="#e6e6e6"/><path d="M314.7,129.44s10.82-16.57,23-12.67,14.06,35.64-19.15,24.78Z" fill="#e6e6e6"/><path d="M320.75,139.43s19.58-2.89,24.74,8.81-17.34,34.17-31.25,2.11Z" fill="#e6e6e6"/><path d="M317.58,149.29s12.88,15,5.73,25.63-38.15,3.52-18.44-25.32Z" fill="#e6e6e6"/><path d="M307.34,130.43s-7.77-18.2-20.45-16.47-20.05,32.64,14.55,27.73Z" fill="#e6e6e6"/><path d="M299.57,139.27s-19.14-2.1-23.48,9.58,18.76,32.88,30.42.89Z" fill="#e6e6e6"/><circle cx="311.36" cy="140.56" r="14.07" fill="#c9c9c9"/><circle cx="307.34" cy="137" r="7.01" fill="#a5a5a5" opacity="0.43"/><circle cx="304.84" cy="135.12" r="2.92" fill="#a5a5a5" opacity="0.43"/><path d="M267.71,243.49s-4-5.57,2.5-10.5,10.24,6,16-1.38c3.5-4.5-.88-5.76,4-13.62,2.25-3.63,8.25-7,14-1a16.13,16.13,0,0,1,3.87,6.27,2.28,2.28,0,0,0,3.42,1.21c1.53-1,3.67-1.33,6.55.39a6.84,6.84,0,0,1,3.74,5.6,5.08,5.08,0,0,0,4.94,4.93c5.15,0,11.48,1.43,11.48,8.1Z" fill="#c9c9c9"/></svg>