<svg id="_510_pie_chart_flatline" data-name="#510_pie_chart_flatline" xmlns="http://www.w3.org/2000/svg" viewBox="0 0 400 300"><path d="M198,124.51,80.15,118.93S90.43,90,143,77.49c50.29-12,74.27-5.9,74.27-5.9Z" fill="#00c5f3"/><path d="M198,125h0L80.13,119.43a.49.49,0,0,1-.39-.22.52.52,0,0,1-.06-.45c.1-.29,11-29.33,63.15-41.76,26-6.2,44.85-7.49,56.12-7.46,12.2,0,18.15,1.5,18.4,1.56a.57.57,0,0,1,.32.25.53.53,0,0,1,0,.41l-19.2,52.92A.5.5,0,0,1,198,125ZM80.88,118.46,197.67,124l18.89-52a93.07,93.07,0,0,0-17.68-1.41h-.21c-11.2,0-29.87,1.3-55.6,7.43-27,6.43-42.52,17.27-50.81,25.24C84.82,110.35,81.73,116.52,80.88,118.46Z" fill="#231f20"/><path d="M290.06,219.82s15.54-9.32,23.67-30.6L319.85,111l-46.21,28.34Z" fill="#fff"/><path d="M290.06,220.32a.51.51,0,0,1-.2,0,.53.53,0,0,1-.29-.36l-16.42-80.44a.51.51,0,0,1,.23-.53l46.21-28.34a.49.49,0,0,1,.52,0,.52.52,0,0,1,.24.47l-6.12,78.18a.39.39,0,0,1,0,.14c-8.1,21.19-23.72,30.76-23.88,30.85A.48.48,0,0,1,290.06,220.32Zm-15.86-80.7L290.41,219a65,65,0,0,0,22.83-29.89l6-77.13Z" fill="#231f20"/><path d="M295.09,148.81,198,106.73l24.86-50.68s47.39,3.28,80.33,27.73C342.18,112.71,301.3,145.18,295.09,148.81Z" fill="#00c5f3"/><path d="M295.08,149.31a.43.43,0,0,1-.19,0l-97.07-42.08a.47.47,0,0,1-.27-.28.51.51,0,0,1,0-.4l24.86-50.68a.5.5,0,0,1,.49-.28c.47,0,47.91,3.57,80.59,27.83,11.74,8.71,17.39,18.58,16.8,29.33-1,18.75-21.07,34.26-25,36.53A.48.48,0,0,1,295.08,149.31ZM198.7,106.48l96.35,41.77c4.29-2.63,23.27-17.61,24.26-35.6.57-10.39-4.94-20-16.39-28.47-31-23-75.44-27.25-79.74-27.61Z" fill="#231f20"/><polygon points="295.08 148.81 290.06 219.82 198.02 178.94 198.02 106.73 295.08 148.81" fill="#231f20"/><path d="M290.06,220.32a.51.51,0,0,1-.2,0l-92.05-40.89a.49.49,0,0,1-.29-.45V106.73a.49.49,0,0,1,.22-.41.48.48,0,0,1,.48,0l97.06,42.07a.5.5,0,0,1,.3.5l-5,71a.5.5,0,0,1-.5.46Zm-91.54-41.71,91.1,40.46,4.94-69.94-96-41.63Z" fill="#231f20"/><polygon points="198.02 178.94 83.66 177.99 80.15 118.93 198.02 124.51 198.02 178.94" fill="#231f20"/><path d="M198,179.44h0l-114.35-.95a.5.5,0,0,1-.5-.47L79.65,119a.51.51,0,0,1,.14-.38.41.41,0,0,1,.38-.15L198,124a.5.5,0,0,1,.48.5v54.43a.51.51,0,0,1-.5.5ZM84.13,177.5l113.39.93V125L80.68,119.45Z" fill="#231f20"/><path d="M118.88,227.47s-15.3-9-24.74-18.05-12.2-22.59-12.2-22.59l-1.79-37.9L198,144.51v20.56l-28,31.08Z" fill="#fff"/><path d="M118.88,228a.45.45,0,0,1-.25-.07c-.16-.09-15.46-9.1-24.84-18.12s-12.31-22.72-12.34-22.85l-1.8-38a.5.5,0,0,1,.13-.37.57.57,0,0,1,.35-.16L198,144a.47.47,0,0,1,.36.14.48.48,0,0,1,.16.36v20.56a.55.55,0,0,1-.13.34l-28,31.08-.11.09L119.14,227.9A.48.48,0,0,1,118.88,228ZM80.67,149.41l1.77,37.39c0,.06,2.83,13.39,12,22.26,8.63,8.3,22.35,16.61,24.4,17.83l50.84-31.13,27.8-30.88V145Z" fill="#231f20"/><path d="M198,144.51l-80.1,51.64S96.41,189,86.61,172.72s-5.25-33.49-5.25-33.49Z" fill="#00c5f3"/><path d="M117.92,196.65l-.15,0c-.22-.07-21.81-7.41-31.59-23.64s-5.35-33.7-5.31-33.87a.48.48,0,0,1,.51-.37L198,144a.5.5,0,0,1,.25.92L118.2,196.57A.57.57,0,0,1,117.92,196.65Zm-36.17-56.9c-.59,2.64-3.49,18.17,5.28,32.71,9.06,15,28.52,22.32,30.83,23.14l78.57-50.66Z" fill="#231f20"/><polygon points="198.02 144.51 198.02 196.15 118.88 227.47 117.92 196.15 198.02 144.51" fill="#231f20"/><path d="M118.88,228a.5.5,0,0,1-.27-.08.51.51,0,0,1-.23-.4l-1-31.32a.54.54,0,0,1,.23-.44l80.1-51.64a.49.49,0,0,1,.51,0,.51.51,0,0,1,.26.44v51.64a.51.51,0,0,1-.32.47l-79.14,31.32A.52.52,0,0,1,118.88,228Zm-.45-31.55.93,30.32,78.16-30.93V145.43Z" fill="#231f20"/><path d="M195.39,222.45v21.28s-48.14-.16-76.51-16.26L118.23,206l72.85,2.5Z" fill="#fff"/><path d="M195.39,244.23h0c-.49,0-48.6-.35-76.76-16.32a.52.52,0,0,1-.25-.42L117.73,206a.47.47,0,0,1,.14-.37.51.51,0,0,1,.37-.15L191.1,208a.5.5,0,0,1,.46.36l4.31,13.94a.77.77,0,0,1,0,.15v21.28a.51.51,0,0,1-.15.35A.47.47,0,0,1,195.39,244.23Zm-76-17.06c26.42,14.84,70.33,16,75.52,16.05V222.53L190.71,209l-72-2.47Z" fill="#231f20"/><path d="M198,156.22,118.23,206s8.06,7.84,33.41,12.39,43.75,4.06,43.75,4.06Z" fill="#00c5f3"/><path d="M193.92,223a251.46,251.46,0,0,1-42.37-4.08c-25.21-4.52-33.34-12.19-33.67-12.52a.48.48,0,0,1-.15-.41.51.51,0,0,1,.23-.37l79.79-49.78a.51.51,0,0,1,.52,0,.52.52,0,0,1,.25.45l-2.63,66.23a.51.51,0,0,1-.49.48Zm-74.85-16.89c2.1,1.67,11.16,8,32.65,11.82A246,246,0,0,0,194.91,222l2.57-64.81Z" fill="#231f20"/><path d="M290.65,211.53l-.59,8.29s-18.19,11.39-29.64,14.82v-8.76Z" fill="#fff"/><path d="M260.42,235.14a.47.47,0,0,1-.3-.1.48.48,0,0,1-.2-.4v-8.76a.52.52,0,0,1,.28-.46l30.24-14.34a.46.46,0,0,1,.49,0,.5.5,0,0,1,.22.44l-.59,8.3a.5.5,0,0,1-.23.38c-.18.12-18.38,11.47-29.77,14.88A.34.34,0,0,1,260.42,235.14Zm.5-8.95V234c10.61-3.38,26.62-13.18,28.66-14.44l.51-7.18Z" fill="#231f20"/><path d="M260.42,225.88a106.88,106.88,0,0,0,30.23-14.35l-80.12-37.61Z" fill="#00c5f3"/><path d="M260.42,226.38a.48.48,0,0,1-.36-.16l-49.89-52a.5.5,0,0,1,0-.64.51.51,0,0,1,.62-.16l80.12,37.62a.51.51,0,0,1,.29.41.53.53,0,0,1-.21.45,108.54,108.54,0,0,1-30.39,14.42Zm-47.66-50.87,47.81,49.81a108.48,108.48,0,0,0,29.08-13.71Z" fill="#231f20"/><path d="M260.42,219.18v15.46a180,180,0,0,1-65,9.09V222.45Z" fill="#fff"/><path d="M203.66,244.45q-4.08,0-8.3-.22a.51.51,0,0,1-.47-.5V222.45a.5.5,0,0,1,.47-.5l65-3.27a.51.51,0,0,1,.53.5v15.46a.5.5,0,0,1-.33.47A183.07,183.07,0,0,1,203.66,244.45Zm-7.77-1.2c32.7,1.67,60.71-7.79,64-9V219.71l-64,3.22Z" fill="#231f20"/><path d="M198,157.79l62.46,61.39s-10.36,3.51-28.21,6.38a257.27,257.27,0,0,1-36.82,2.75Z" fill="#00c5f3"/><path d="M195.63,228.81h-.25a.48.48,0,0,1-.35-.16.45.45,0,0,1-.14-.36l2.57-70.52a.5.5,0,0,1,.31-.45.52.52,0,0,1,.54.11l62.46,61.4a.52.52,0,0,1,.14.46.53.53,0,0,1-.33.37,196.11,196.11,0,0,1-28.29,6.39A259,259,0,0,1,195.63,228.81Zm2.78-69.87-2.5,68.87a258.47,258.47,0,0,0,36.22-2.75,205.51,205.51,0,0,0,27.35-6.1Z" fill="#231f20"/><path d="M145.92,97.78a.44.44,0,0,1-.24-.07L102.63,74.05a.5.5,0,1,1,.48-.88l43.05,23.67a.5.5,0,0,1,.2.68A.51.51,0,0,1,145.92,97.78Z" fill="#d1d3d4"/><path d="M267.86,93.26a.5.5,0,0,1-.44-.27.51.51,0,0,1,.21-.68l52-27a.5.5,0,0,1,.46.88l-52,27A.46.46,0,0,1,267.86,93.26Z" fill="#d1d3d4"/><path d="M122.58,244.45a.48.48,0,0,1-.39-.19.5.5,0,0,1,.08-.7c2-1.6,49-39.31,50.74-40.3a.5.5,0,0,1,.5.86c-1.31.77-33.68,26.64-50.62,40.22A.45.45,0,0,1,122.58,244.45Z" fill="#d1d3d4"/><path d="M113,245.49H92.59a.51.51,0,0,1-.5-.5.5.5,0,0,1,.5-.5H113a.5.5,0,0,1,.5.5A.51.51,0,0,1,113,245.49Z" fill="#d1d3d4"/><path d="M113,240H92.59a.5.5,0,1,1,0-1H113a.5.5,0,0,1,0,1Z" fill="#d1d3d4"/><path d="M113,234.41H92.59a.5.5,0,0,1-.5-.5.51.51,0,0,1,.5-.5H113a.51.51,0,0,1,.5.5A.5.5,0,0,1,113,234.41Z" fill="#d1d3d4"/><path d="M105.16,250.74H92.59a.5.5,0,0,1-.5-.5.51.51,0,0,1,.5-.5h12.57a.5.5,0,0,1,.5.5A.5.5,0,0,1,105.16,250.74Z" fill="#d1d3d4"/><path d="M94.52,63.6H71.05a.5.5,0,0,1,0-1H94.52a.5.5,0,0,1,0,1Z" fill="#d1d3d4"/><path d="M94.52,68.86H71.05a.51.51,0,0,1-.5-.5.5.5,0,0,1,.5-.5H94.52a.5.5,0,0,1,.5.5A.51.51,0,0,1,94.52,68.86Z" fill="#d1d3d4"/><path d="M85.51,74.11H71.05a.5.5,0,0,1-.5-.5.51.51,0,0,1,.5-.5H85.51a.5.5,0,0,1,.5.5A.5.5,0,0,1,85.51,74.11Z" fill="#d1d3d4"/><path d="M353.46,63.6H330a.5.5,0,0,1,0-1h23.46a.5.5,0,0,1,0,1Z" fill="#d1d3d4"/><path d="M353.46,68.86H330a.5.5,0,0,1-.5-.5.5.5,0,0,1,.5-.5h23.46a.5.5,0,0,1,.5.5A.5.5,0,0,1,353.46,68.86Z" fill="#d1d3d4"/><path d="M344.45,74.11H330a.5.5,0,0,1-.5-.5.5.5,0,0,1,.5-.5h14.45a.5.5,0,0,1,.5.5A.5.5,0,0,1,344.45,74.11Z" fill="#d1d3d4"/><path d="M326.43,248.12H290.65a.5.5,0,0,1-.5-.5V231.57a.5.5,0,0,1,.5-.5h35.78a.5.5,0,0,1,.5.5v16.05A.5.5,0,0,1,326.43,248.12Zm-35.28-1h34.78V232.07H291.15Z" fill="#d1d3d4"/><path d="M319.85,237.42h-23.1a.5.5,0,0,1-.5-.5.5.5,0,0,1,.5-.5h23.1a.5.5,0,0,1,.5.5A.5.5,0,0,1,319.85,237.42Z" fill="#d1d3d4"/><path d="M319.85,243.24h-23.1a.5.5,0,0,1-.5-.5.5.5,0,0,1,.5-.5h23.1a.5.5,0,0,1,.5.5A.5.5,0,0,1,319.85,243.24Z" fill="#d1d3d4"/></svg>