<svg id="_150_pipeline_flatline" data-name="#150_pipeline_flatline" xmlns="http://www.w3.org/2000/svg" viewBox="0 0 400 300"><rect x="53.03" y="38.9" width="293.95" height="222.37" fill="#fff"/><path d="M286.74,261.41H267.87a.5.5,0,0,1-.5-.5V85.7a11.07,11.07,0,0,1,11.05-11.06H347a.5.5,0,0,1,.5.5.5.5,0,0,1-.5.5H278.42A10.07,10.07,0,0,0,268.37,85.7V260.41h17.87V101.16a7.66,7.66,0,0,1,7.65-7.65H347a.5.5,0,0,1,.5.5.5.5,0,0,1-.5.5H293.89a6.65,6.65,0,0,0-6.65,6.65V260.91A.51.51,0,0,1,286.74,261.41Z" fill="#d1d3d4"/><rect x="151.44" y="225.48" width="14.95" height="13.06" fill="#fff"/><path d="M166.38,239H151.44a.46.46,0,0,1-.46-.46V225.48a.45.45,0,0,1,.46-.46h14.94a.46.46,0,0,1,.46.46v13.06A.47.47,0,0,1,166.38,239Zm-14.49-.92h14V225.93h-14Z" fill="#231f20"/><polyline points="346.88 122.76 244.67 122.76 244.67 166.68 346.88 166.68" fill="#fff"/><path d="M346.88,167.13H244.67a.45.45,0,0,1-.46-.45V122.76a.45.45,0,0,1,.46-.45H346.88a.45.45,0,0,1,.45.45.46.46,0,0,1-.45.46H245.12v43H346.88a.46.46,0,0,1,0,.91Z" fill="#231f20"/><path d="M116,38.72v76.46a7.58,7.58,0,0,0,7.58,7.58h27.46v43.92H97.33a25.21,25.21,0,0,1-25.21-25.21V38.72" fill="#fff"/><path d="M151.08,167.13H97.33a25.69,25.69,0,0,1-25.66-25.66V38.72a.46.46,0,0,1,.91,0V141.47a24.77,24.77,0,0,0,24.75,24.75h53.29v-43h-27a8.05,8.05,0,0,1-8-8V38.72a.46.46,0,0,1,.91,0v76.46a7.14,7.14,0,0,0,7.13,7.13h27.46a.45.45,0,0,1,.45.45v43.92A.45.45,0,0,1,151.08,167.13Z" fill="#231f20"/><path d="M241.16,60.25c0,3-4.57,5.35-10.21,5.35s-25.09-2.39-25.09-5.35,19.46-5.34,25.09-5.34S241.16,57.3,241.16,60.25Z" fill="#fff"/><path d="M231,66.06a106.81,106.81,0,0,1-14.73-1.57c-10.81-1.88-10.81-3.65-10.81-4.24s0-2.35,10.81-4.23A106.81,106.81,0,0,1,231,54.45c6,0,10.67,2.55,10.67,5.8S236.93,66.06,231,66.06Zm0-10.7a106.37,106.37,0,0,0-14.58,1.56c-7.93,1.38-10.05,2.75-10.05,3.33s2.12,2,10.05,3.34A106,106,0,0,0,231,65.14c5.29,0,9.75-2.23,9.75-4.89S236.24,55.36,231,55.36Z" fill="#231f20"/><path d="M154.58,60.25c0,3,4.57,5.35,10.21,5.35s25.09-2.39,25.09-5.35-19.46-5.34-25.09-5.34S154.58,57.3,154.58,60.25Z" fill="#fff"/><path d="M164.79,66.06c-6,0-10.66-2.55-10.66-5.81s4.68-5.8,10.66-5.8A107.07,107.07,0,0,1,179.53,56c10.81,1.88,10.81,3.65,10.81,4.23s0,2.36-10.81,4.24A107.07,107.07,0,0,1,164.79,66.06Zm0-10.7c-5.29,0-9.75,2.24-9.75,4.89s4.46,4.89,9.75,4.89a106,106,0,0,0,14.58-1.55c7.94-1.38,10-2.75,10-3.34s-2.11-2-10-3.33A106.37,106.37,0,0,0,164.79,55.36Z" fill="#231f20"/><rect x="132.98" y="120.87" width="14.46" height="48.44" rx="3.07" fill="#fff"/><path d="M144.36,169.77h-8.31a3.53,3.53,0,0,1-3.53-3.53V124a3.53,3.53,0,0,1,3.53-3.53h8.31a3.53,3.53,0,0,1,3.53,3.53v42.29A3.53,3.53,0,0,1,144.36,169.77Zm-8.31-48.44a2.62,2.62,0,0,0-2.62,2.62v42.29a2.63,2.63,0,0,0,2.62,2.62h8.31a2.63,2.63,0,0,0,2.62-2.62V124a2.62,2.62,0,0,0-2.62-2.62Z" fill="#231f20"/><rect x="248.31" y="120.87" width="14.46" height="48.44" rx="3.07" fill="#fff"/><path d="M259.69,169.77h-8.31a3.53,3.53,0,0,1-3.53-3.53V124a3.53,3.53,0,0,1,3.53-3.53h8.31a3.53,3.53,0,0,1,3.53,3.53v42.29A3.53,3.53,0,0,1,259.69,169.77Zm-8.31-48.44a2.62,2.62,0,0,0-2.62,2.62v42.29a2.63,2.63,0,0,0,2.62,2.62h8.31a2.63,2.63,0,0,0,2.62-2.62V124a2.62,2.62,0,0,0-2.62-2.62Z" fill="#231f20"/><rect x="190.64" y="70.17" width="14.46" height="54.02" rx="3.25" transform="translate(295.05 -100.69) rotate(90)" fill="#fff"/><path d="M221.64,104.87H174.11a3.71,3.71,0,0,1-3.71-3.71v-8a3.72,3.72,0,0,1,3.71-3.71h47.53a3.71,3.71,0,0,1,3.7,3.71v8A3.71,3.71,0,0,1,221.64,104.87ZM174.11,90.41a2.79,2.79,0,0,0-2.79,2.79v8a2.79,2.79,0,0,0,2.79,2.79h47.53a2.79,2.79,0,0,0,2.78-2.79v-8a2.79,2.79,0,0,0-2.78-2.79Z" fill="#231f20"/><polyline points="222.03 260.91 222.03 153.91 173.71 153.91 173.71 260.91" fill="#fff"/><path d="M222,261.37a.47.47,0,0,1-.46-.46V154.37h-47.4V260.91a.47.47,0,0,1-.46.46.46.46,0,0,1-.45-.46v-107a.46.46,0,0,1,.45-.46H222a.47.47,0,0,1,.46.46v107A.47.47,0,0,1,222,261.37Z" fill="#231f20"/><polygon points="248.31 122.64 222.03 122.64 222.03 104.41 173.71 104.41 173.71 122.64 147.44 122.64 147.44 166.68 173.71 166.68 173.71 203.41 222.03 203.41 222.03 166.68 248.31 166.68 248.31 122.64" fill="#fff"/><path d="M222,203.87H173.71a.47.47,0,0,1-.46-.46V167.13H147.44a.45.45,0,0,1-.46-.45v-44a.45.45,0,0,1,.46-.45h25.81V104.41a.47.47,0,0,1,.46-.46H222a.47.47,0,0,1,.46.46v17.78h25.82a.45.45,0,0,1,.45.45v44a.45.45,0,0,1-.45.45H222.49v36.28A.47.47,0,0,1,222,203.87ZM174.17,203h47.4V166.68a.46.46,0,0,1,.46-.46h25.82V123.1H222a.47.47,0,0,1-.46-.46V104.87h-47.4v17.77a.47.47,0,0,1-.46.46H147.89v43.12h25.82a.46.46,0,0,1,.46.46Z" fill="#231f20"/><rect x="175.97" y="78.72" width="43.8" height="11.29" fill="#fff"/><path d="M219.77,90.47H176a.45.45,0,0,1-.45-.46V78.72a.45.45,0,0,1,.45-.45h43.8a.46.46,0,0,1,.46.45V90A.46.46,0,0,1,219.77,90.47Zm-43.34-.91h42.88V79.18H176.43Z" fill="#231f20"/><rect x="186.69" y="60.25" width="22.36" height="18.47" fill="#fff"/><path d="M209.05,79.18H186.69a.47.47,0,0,1-.46-.46V60.25a.46.46,0,0,1,.46-.45h22.36a.46.46,0,0,1,.46.45V78.72A.47.47,0,0,1,209.05,79.18Zm-21.9-.91h21.44V60.71H187.15Z" fill="#231f20"/><ellipse cx="197.87" cy="60.25" rx="15.69" ry="10.98" fill="#fff"/><path d="M197.87,71.69c-8.9,0-16.15-5.13-16.15-11.44S189,48.82,197.87,48.82,214,54,214,60.25,206.78,71.69,197.87,71.69Zm0-22c-8.4,0-15.23,4.72-15.23,10.52s6.83,10.53,15.23,10.53,15.24-4.72,15.24-10.53S206.27,49.73,197.87,49.73Z" fill="#231f20"/><rect x="190.64" y="174.21" width="14.46" height="54.02" rx="3.25" transform="translate(399.1 3.35) rotate(90)" fill="#fff"/><path d="M221.64,208.91H174.11a3.71,3.71,0,0,1-3.71-3.7v-8a3.71,3.71,0,0,1,3.71-3.7h47.53a3.7,3.7,0,0,1,3.7,3.7v8A3.7,3.7,0,0,1,221.64,208.91Zm-47.53-14.46a2.79,2.79,0,0,0-2.79,2.79v8a2.79,2.79,0,0,0,2.79,2.79h47.53a2.79,2.79,0,0,0,2.78-2.79v-8a2.79,2.79,0,0,0-2.78-2.79Z" fill="#231f20"/><path d="M305.6,155.7a11,11,0,1,1,11-11A11,11,0,0,1,305.6,155.7Zm0-21a10,10,0,1,0,10,10A10,10,0,0,0,305.6,134.74Z" fill="#d1d3d4"/><circle cx="305.6" cy="144.72" r="8.27" fill="#00c5f3"/><path d="M305.6,173.34a28.62,28.62,0,1,1,28.62-28.62A28.66,28.66,0,0,1,305.6,173.34Zm0-53.24a24.62,24.62,0,1,0,24.62,24.62A24.65,24.65,0,0,0,305.6,120.1Z" fill="#00c5f3"/><path d="M305.6,146.72a2,2,0,0,1-1-.29l-22.78-13.79a2,2,0,1,1,2.08-3.42l21.7,13.14L326,129.25a2,2,0,0,1,2.16,3.36L306.68,146.4A2,2,0,0,1,305.6,146.72Z" fill="#00c5f3"/><path d="M305.6,173.34a2,2,0,0,1-2-2V144.72a2,2,0,0,1,4,0v26.62A2,2,0,0,1,305.6,173.34Z" fill="#00c5f3"/><rect x="166.38" y="222.66" width="7.33" height="18.69" fill="#fff"/><path d="M173.71,241.81h-7.33a.47.47,0,0,1-.46-.46V222.67a.46.46,0,0,1,.46-.46h7.33a.46.46,0,0,1,.46.46v18.68A.47.47,0,0,1,173.71,241.81Zm-6.87-.92h6.42V223.12h-6.42Z" fill="#231f20"/><circle cx="132.98" cy="230.17" r="24.74" fill="#fff"/><path d="M133,255.37a25.2,25.2,0,1,1,25.2-25.2A25.23,25.23,0,0,1,133,255.37Zm0-49.49a24.29,24.29,0,1,0,24.28,24.29A24.32,24.32,0,0,0,133,205.88Z" fill="#231f20"/><circle cx="132.98" cy="230.17" r="21.71" fill="#00c5f3"/><path d="M133,250.11a.47.47,0,0,1-.46-.46V246a.47.47,0,0,1,.46-.46.46.46,0,0,1,.45.46v3.61A.46.46,0,0,1,133,250.11Z" fill="#231f20"/><path d="M133,214.49a.47.47,0,0,1-.46-.46v-3.61A.46.46,0,0,1,133,210a.45.45,0,0,1,.45.46V214A.46.46,0,0,1,133,214.49Z" fill="#231f20"/><path d="M119.11,244.36a.46.46,0,0,1-.33-.78l2.56-2.55a.45.45,0,0,1,.64.64l-2.55,2.56A.45.45,0,0,1,119.11,244.36Z" fill="#231f20"/><path d="M144.29,219.17A.45.45,0,0,1,144,219a.46.46,0,0,1,0-.65l2.56-2.55a.45.45,0,0,1,.64,0,.46.46,0,0,1,0,.65L144.62,219A.46.46,0,0,1,144.29,219.17Z" fill="#231f20"/><path d="M117,230.49h-3.61a.46.46,0,1,1,0-.91H117a.46.46,0,1,1,0,.91Z" fill="#231f20"/><path d="M152.6,230.49H149a.46.46,0,0,1,0-.91h3.62a.46.46,0,0,1,0,.91Z" fill="#231f20"/><path d="M121.66,219.17a.44.44,0,0,1-.32-.13l-2.56-2.55a.46.46,0,0,1,.65-.65l2.55,2.55a.46.46,0,0,1,0,.65A.44.44,0,0,1,121.66,219.17Z" fill="#231f20"/><path d="M146.85,244.36a.44.44,0,0,1-.32-.13L144,241.67a.45.45,0,0,1,0-.64.46.46,0,0,1,.65,0l2.55,2.55a.46.46,0,0,1,0,.65A.44.44,0,0,1,146.85,244.36Z" fill="#231f20"/><path d="M136,229.09c2.62,2.8-.06,5.3-2.68,2.5S125.83,221,125.83,221,133.33,226.28,136,229.09Z" fill="#231f20"/><polygon points="173.71 116.43 222.03 108.69 222.03 104.41 173.71 104.41 173.71 116.43" fill="#231f20"/><path d="M173.71,116.93a.51.51,0,0,1-.5-.5v-12a.5.5,0,0,1,.5-.5H222a.5.5,0,0,1,.5.5v4.28a.5.5,0,0,1-.42.49l-48.32,7.74Zm.5-12v10.93l47.32-7.58v-3.35Z" fill="#231f20"/><polygon points="173.71 218.72 222.03 211.37 221.64 208.45 174.11 208.45 173.71 218.72" fill="#231f20"/><path d="M173.71,219.22a.51.51,0,0,1-.33-.13.52.52,0,0,1-.17-.39l.4-10.27a.5.5,0,0,1,.5-.48h47.53a.5.5,0,0,1,.49.44l.4,2.91a.5.5,0,0,1-.42.56l-48.32,7.35Zm.88-10.27-.35,9.18L221.47,211l-.27-2Z" fill="#231f20"/><rect x="265.89" y="203.41" width="23.4" height="7.44" rx="2.33" fill="#fff"/><path d="M287,211.35H268.23a2.84,2.84,0,0,1-2.84-2.83v-2.77a2.84,2.84,0,0,1,2.84-2.84H287a2.84,2.84,0,0,1,2.84,2.84v2.77A2.84,2.84,0,0,1,287,211.35Zm-18.73-7.44a1.84,1.84,0,0,0-1.84,1.84v2.77a1.84,1.84,0,0,0,1.84,1.83H287a1.83,1.83,0,0,0,1.84-1.83v-2.77a1.84,1.84,0,0,0-1.84-1.84Z" fill="#d1d3d4"/><rect x="298.45" y="80.65" width="23.4" height="7.44" rx="2.33" transform="translate(394.52 -225.78) rotate(90)" fill="#fff"/><path d="M311.54,96.57h-2.78a2.83,2.83,0,0,1-2.83-2.83V75a2.83,2.83,0,0,1,2.83-2.83h2.78A2.83,2.83,0,0,1,314.37,75V93.74A2.83,2.83,0,0,1,311.54,96.57Zm-2.78-23.4A1.83,1.83,0,0,0,306.93,75V93.74a1.83,1.83,0,0,0,1.83,1.83h2.78a1.83,1.83,0,0,0,1.83-1.83V75a1.83,1.83,0,0,0-1.83-1.83Z" fill="#d1d3d4"/><path d="M347,38.9V261.28H53V38.9H347m0-1H53a1,1,0,0,0-1,1V261.28a1,1,0,0,0,1,1H347a1,1,0,0,0,1-1V38.9a1,1,0,0,0-1-1Z" fill="#231f20"/></svg>