<svg xmlns="http://www.w3.org/2000/svg" viewBox="0 0 400 300"><g id="_547_surfing_outline" data-name="#547_surfing_outline"><path d="M195.8,131.27c-37.46-1.53-70.16,2-86.61,8.43l-.83,20.38c15.87,7.75,48.17,13.93,85.63,15.46,53.57,2.18,97.91-18.18,97.91-18.18S249.37,133.46,195.8,131.27Z" fill="#00c5f3"/><path d="M202,176.7c-2.66,0-5.35,0-8.06-.17-36.47-1.48-69.44-7.44-86-15.55a1,1,0,0,1-.56-.94l.83-20.38a1,1,0,0,1,.64-.89c17.2-6.73,50.53-10,87-8.5,53.2,2.18,96.12,26,96.55,26.22a1,1,0,0,1,.5.92,1,1,0,0,1-.58.86C291.89,158.47,251.59,176.7,202,176.7Zm-92.62-17.24c16.54,7.85,48.86,13.62,84.64,15.08,46.56,1.89,86.55-13.51,95.56-17.27-8.67-4.48-47.28-23.1-93.83-25-35.78-1.46-68.46,1.65-85.6,8.13Z" fill="#093f68"/><path d="M184.57,189.9l-24.4,27.87s-.41,7.18.44,7.6,5.19,1.27,4.35,2.54-7.74,1.4-10.28,0-7-10.28-7-10.28l21.39-35Z" fill="#ffc9b0"/><path d="M160.26,229.9a14,14,0,0,1-6.06-1.12c-2.73-1.51-6.94-9.76-7.41-10.7a1,1,0,0,1,0-1l21.4-35.06a1,1,0,0,1,1.28-.38L185,189a1,1,0,0,1,.55.7,1,1,0,0,1-.23.86l-24.17,27.62a33.41,33.41,0,0,0,.13,6.4l.75.23c2.06.64,3.56,1.18,3.95,2.28a1.52,1.52,0,0,1-.19,1.38C165.14,229.44,162.77,229.9,160.26,229.9Zm-11.43-12.23c1.73,3.36,4.77,8.49,6.34,9.36,2,1.11,6.88,1,8.52.5a16.9,16.9,0,0,0-2.25-.81,9.68,9.68,0,0,1-1.28-.45c-.5-.25-1.43-.72-1-8.56a1,1,0,0,1,.25-.6L183,190.23l-13.48-6.37Z" fill="#093f68"/><path d="M196.78,189.61,193,229.41s20.27,3.94,20.27,1.5-9.18-6-9.18-6l9.18-37.54Z" fill="#ffc9b0"/><path d="M210.16,232.68c-4.9,0-13.2-1.49-17.33-2.29a1,1,0,0,1-.8-1.08l3.75-39.79a1,1,0,0,1,.86-.9l16.52-2.25a1,1,0,0,1,.88.32,1,1,0,0,1,.23.91l-9,36.69c8.1,3.28,9,5.71,9,6.62a1.45,1.45,0,0,1-.55,1.12C213.19,232.49,211.89,232.68,210.16,232.68Zm-16-4.08c7.56,1.43,16,2.51,18.07,2-.71-1.09-4.42-3.21-8.42-4.77a1,1,0,0,1-.61-1.16L212,188.55,197.7,190.5Z" fill="#093f68"/><path d="M224.53,134.51c-3.05-.77-13.53-1.7-13.53-1.7l-2.23-1.47-4.11,30.12-33.1-2.76,4.94-26.34-12.76,7.89-6.06,17.83s2.5,9.44.42,8.73a6.49,6.49,0,0,1-3.23-3.38c.1.61.78,6.77-3.1,6.9-4.09.14-4.69-1.79-5.26-4.88s2.22-9,2.22-9c-.15-5.43,4-20,5.71-22.27s14.36-11.8,24.22-17,23.55-2,30.11,0C215.82,119.32,220.26,124.52,224.53,134.51Z" fill="#ffc9b0"/><path d="M151.37,171.33c-4.43,0-5.25-2.47-5.85-5.7-.55-3.08,1.65-8.19,2.21-9.42,0-5.92,4.1-20.26,5.91-22.66,1.94-2.59,15.06-12.28,24.56-17.24,9.88-5.16,23.57-2.26,30.86-.07,7.13,2.14,11.88,7.32,16.39,17.88a1,1,0,0,1-.16,1,1,1,0,0,1-1,.32c-2.94-.74-13.27-1.66-13.38-1.67a1.1,1.1,0,0,1-.46-.16l-.9-.6-3.9,28.54a1,1,0,0,1-1.07.87l-33.1-2.76a1.06,1.06,0,0,1-.72-.39,1,1,0,0,1-.18-.79l4.52-24.12-10.53,6.51-5.84,17.21c1.37,5.26,1.56,8.41.55,9.34a1.43,1.43,0,0,1-1.5.29,5.35,5.35,0,0,1-1.88-1.16,6.56,6.56,0,0,1-1.26,3.37,3.74,3.74,0,0,1-2.84,1.37Zm40.3-55.92a27.11,27.11,0,0,0-12.55,2.68c-9.68,5-22.27,14.51-23.88,16.66s-5.66,16.4-5.51,21.64a1.06,1.06,0,0,1-.1.46c-.73,1.57-2.55,6.14-2.14,8.42.53,2.9.91,4.15,4.24,4.06a1.73,1.73,0,0,0,1.37-.64c1.11-1.35.89-4.41.78-5.1a1,1,0,0,1,2-.44,6.24,6.24,0,0,0,2.1,2.49,30.2,30.2,0,0,0-1.22-7.3,1,1,0,0,1,0-.58l6.06-17.83a1.06,1.06,0,0,1,.42-.53L176,131.51a1,1,0,0,1,1.1,0,1,1,0,0,1,.41,1l-4.73,25.26,31.05,2.58,4-29.17a1,1,0,0,1,.58-.78,1,1,0,0,1,1,.07l2,1.34c1.37.12,7.74.72,11.5,1.33-4.05-8.89-8.17-13.15-14.36-15A60.52,60.52,0,0,0,191.67,115.41Z" fill="#093f68"/><polygon points="217.04 186.42 204.66 161.46 171.56 158.7 163.74 189.9 183.91 194.68 189.08 183.8 194.89 195.5 217.04 186.42" fill="#00c5f3"/><path d="M194.89,196.5a1,1,0,0,1-.9-.56l-4.89-9.85-4.28,9a1,1,0,0,1-1.14.55l-20.18-4.79a1,1,0,0,1-.62-.45,1,1,0,0,1-.11-.77l7.82-31.2a1,1,0,0,1,1.06-.75l33.09,2.76a1,1,0,0,1,.81.55l12.39,25a1,1,0,0,1-.52,1.37l-22.16,9.07A1,1,0,0,1,194.89,196.5Zm-5.81-13.7a1,1,0,0,1,.89.55l5.4,10.87,20.3-8.31L204,162.41l-31.68-2.65L165,189.16l18.41,4.36,4.81-10.15a1,1,0,0,1,.9-.57Z" fill="#093f68"/><path d="M176.53,94a11.57,11.57,0,0,1-3.8-2.92c-1.91-2.31-2.87-5.24-3.79-8.09a7,7,0,0,0,6.37-1,15.5,15.5,0,0,1-10.38-3.65c3.12,0,5.57-2.71,7-5.49s2.37-5.92,4.6-8.12c2.9-2.87,6-2.61,9.61-1.95.46-6,4.61-11.28,11-11,10.26.46,15.05,12,20.84,11.75s7.57-2.64,7.57-2.64a10.52,10.52,0,0,1-2.36,11.43s4.62-.87,4.58,5.18-5.19,21.59-5.19,21.59l-4-1.11c-1.68-.47-3.86-.26-5.6-.38l-12.8-.86C193.77,96.3,183.22,97.3,176.53,94Z" fill="#725858"/><path d="M222.6,100.08a1.24,1.24,0,0,1-.27,0l-4-1.12a14.15,14.15,0,0,0-3.54-.29c-.65,0-1.28,0-1.86,0l-12.81-.86c-1.58-.1-3.46-.12-5.45-.14-5.95-.06-13.36-.13-18.57-2.7h0A12.72,12.72,0,0,1,172,91.71c-2.06-2.49-3.07-5.64-4-8.42A1,1,0,0,1,169.26,82a5.8,5.8,0,0,0,.82.21,16.49,16.49,0,0,1-5.8-3.16A1,1,0,0,1,164,78a1,1,0,0,1,.94-.65h0c3.18,0,5.31-3.46,6.07-4.95.39-.75.75-1.54,1.1-2.32a18.84,18.84,0,0,1,3.69-6c2.95-2.92,6.14-2.92,9.43-2.41.87-5.77,5.09-11.14,11.94-10.82,6.1.27,10.4,4.24,13.85,7.43,2.56,2.37,4.77,4.4,6.91,4.32,5.15-.23,6.8-2.23,6.82-2.25a1,1,0,0,1,.9-.38,1,1,0,0,1,.8.57,11.72,11.72,0,0,1-1.25,11,4.55,4.55,0,0,1,1.67.87c1.27,1.07,1.91,2.8,1.89,5.16,0,6.13-5,21.27-5.25,21.91A1,1,0,0,1,222.6,100.08ZM218.85,97l3.09.85c1.09-3.39,4.81-15.39,4.85-20.38,0-1.72-.38-2.93-1.16-3.6a3,3,0,0,0-2.24-.58,1,1,0,0,1-1.06-.53,1,1,0,0,1,.17-1.16,9.42,9.42,0,0,0,2.57-9,13.71,13.71,0,0,1-7,1.91c-3,.15-5.47-2.18-8.36-4.85-3.38-3.12-7.21-6.66-12.58-6.9-6-.27-9.58,4.86-10,10.06a1,1,0,0,1-1.17.91c-3.36-.61-6.14-.87-8.73,1.68A17.44,17.44,0,0,0,174,70.88c-.36.79-.73,1.61-1.14,2.41-.74,1.45-2.57,4.42-5.45,5.56A14.55,14.55,0,0,0,175.29,81a1,1,0,0,1,1,.67,1,1,0,0,1-.35,1.13,8,8,0,0,1-5.48,1.54,19,19,0,0,0,3.07,6.13A10.66,10.66,0,0,0,177,93.09c4.79,2.38,12,2.45,17.7,2.5,2,0,3.92,0,5.57.15l12.8.85c.54,0,1.13,0,1.74,0a15.56,15.56,0,0,1,4.06.36Z" fill="#093f68"/><path d="M192.59,115.71l.42-3.82,7.31.8-.42,3.83" fill="#ffc9b0"/><path d="M199.9,117.52h-.11a1,1,0,0,1-.88-1.1l.31-2.83-5.33-.59-.31,2.83a1,1,0,0,1-2-.22l.42-3.82a1,1,0,0,1,1.11-.89l7.31.81a1,1,0,0,1,.67.37,1,1,0,0,1,.22.74l-.43,3.82A1,1,0,0,1,199.9,117.52Z" fill="#093f68"/><path d="M185,93c-.2,3.41-3.56,6-7.5,5.75s-6.87-5-6.68-8.37,3.46-4.2,7.4-4S185.18,89.59,185,93Z" fill="#ffc9b0"/><path d="M178,99.77l-.55,0c-4.38-.26-7.85-5.4-7.61-9.43a4.65,4.65,0,0,1,2.88-4.2,11.93,11.93,0,0,1,5.57-.7c4.48.26,7.94,3.69,7.71,7.64h0a6.7,6.7,0,0,1-2.73,5A8.62,8.62,0,0,1,178,99.77Zm-1-12.39a8.68,8.68,0,0,0-3.49.57,2.65,2.65,0,0,0-1.71,2.49c-.18,3.07,2.49,7.12,5.74,7.31a6.71,6.71,0,0,0,4.48-1.3,4.8,4.8,0,0,0,2-3.51h0c.16-2.85-2.46-5.33-5.84-5.53Z" fill="#093f68"/><path d="M226.7,93.64c-.2,3.4-3.66,7.76-7.6,7.53s-7-3.17-6.78-6.58,3.56-6,7.5-5.75S226.9,90.23,226.7,93.64Z" fill="#ffc9b0"/><path d="M219.4,102.18H219c-4.48-.26-7.95-3.69-7.72-7.64s4.06-7,8.56-6.69c6.72.39,8,3.4,7.82,5.86h0A9.7,9.7,0,0,1,225,99.45,7.8,7.8,0,0,1,219.4,102.18Zm-.07-12.36c-3.19,0-5.85,2.1-6,4.83s2.45,5.33,5.84,5.53a5.89,5.89,0,0,0,4.41-2.09,7.73,7.73,0,0,0,2.13-4.51h0c.06-.93.2-3.39-5.94-3.75Z" fill="#093f68"/><path d="M197.67,113.91h0A21.6,21.6,0,0,1,177.4,91.07l.59-10c.3-5.19,8.76-14.42,13.93-14.12,0,0,.56,5,8.44,9.73,5.52,3.33,13.53,4,21.12-.67l-1,17.56A21.6,21.6,0,0,1,197.67,113.91Z" fill="#ffc9b0"/><path d="M199,115c-.44,0-.89,0-1.33,0A22.63,22.63,0,0,1,176.4,91L177,81c.18-3.22,2.92-7.15,5.42-9.75,3.33-3.48,6.92-5.46,9.57-5.3a1,1,0,0,1,.94.88s.67,4.58,8,9c4.63,2.8,12.33,4.1,20.08-.66a1,1,0,0,1,1,0,1,1,0,0,1,.49.92l-1,17.56A22.61,22.61,0,0,1,199,115Zm-7.81-47c-2,.27-4.72,2-7.29,4.67-2.78,2.9-4.74,6.31-4.87,8.48l-.58,10a20.62,20.62,0,0,0,19.33,21.79,20.58,20.58,0,0,0,21.73-19.39l.92-15.73a21,21,0,0,1-20.54-.26C193.56,73.73,191.69,69.74,191.14,68Z" fill="#093f68"/><path d="M216.52,85.19h-.14l-9.5-.61a2,2,0,0,1,.26-4l9.5.61a2,2,0,0,1-.12,4Z" fill="#093f68"/><path d="M193.45,83.84h-.14l-9.5-.62a2,2,0,0,1,.26-4l9.5.62a2,2,0,0,1-.12,4Z" fill="#093f68"/><path d="M201.74,98.94a12.07,12.07,0,0,1-2.54-.3,1,1,0,0,1,.46-2,9.22,9.22,0,0,0,2.51.23,17,17,0,0,0-1.39-4.33,1,1,0,0,1,.5-1.32,1,1,0,0,1,1.33.5c.79,1.78,2,5,1.33,6.31a1.42,1.42,0,0,1-1,.76A6.56,6.56,0,0,1,201.74,98.94Z" fill="#093f68"/><ellipse cx="207.17" cy="89.33" rx="1.9" ry="1.91" transform="translate(105.94 290.96) rotate(-86.67)" fill="#093f68"/><ellipse cx="190.6" cy="88.82" rx="1.9" ry="1.91" transform="translate(90.84 273.94) rotate(-86.67)" fill="#093f68"/><path d="M199,106.93a11,11,0,0,1-3-.42,10.74,10.74,0,0,1-6.2-4.86,1,1,0,0,1,1.78-.93,8.76,8.76,0,0,0,5,3.88c2.9.83,6.33.11,10.17-2.12a1,1,0,1,1,1,1.72A17.53,17.53,0,0,1,199,106.93Z" fill="#093f68"/><path d="M189.08,184.8a1,1,0,0,1-.87-.5c-.34-.6-8.42-14.6-10.59-20.53a1,1,0,0,1,1.88-.68c2.11,5.76,10.36,20.06,10.44,20.21a1,1,0,0,1-.36,1.36A1,1,0,0,1,189.08,184.8Z" fill="#093f68"/><path d="M176.5,133.36a1,1,0,0,1-.53-1.85l8.07-5.06a1,1,0,1,1,1.06,1.69L177,133.21A1,1,0,0,1,176.5,133.36Z" fill="#093f68"/><path d="M208.77,132.34h-.11a1,1,0,0,1-.88-1.1l.57-5.35a1,1,0,1,1,2,.21l-.58,5.36A1,1,0,0,1,208.77,132.34Z" fill="#093f68"/><path d="M119.48,165.42h0a1,1,0,0,1-1-1l1.15-28.15a1,1,0,0,1,1-.95,1,1,0,0,1,1,1l-1.15,28.14A1,1,0,0,1,119.48,165.42Z" fill="#093f68"/><path d="M222.83,169.68a3,3,0,0,0-.27-.35,2.35,2.35,0,0,0-1.81-.82,3.41,3.41,0,0,0-1.27.39,7.62,7.62,0,0,0-3.65,3.08c-1.33,2.5-.23,5.75,2.57,6.27,2.58.47,6.34-.42,7.85-2.74a3.13,3.13,0,0,0,.36-2.72,2.74,2.74,0,0,0-3.11-1.64A5.16,5.16,0,0,0,222.83,169.68Z" fill="#ffc9b0"/><path d="M219.85,179.37a8.53,8.53,0,0,1-1.63-.14,4.75,4.75,0,0,1-3.42-2.61,5.72,5.72,0,0,1,.14-5.11A8.48,8.48,0,0,1,219,168a4.37,4.37,0,0,1,1.66-.49,3.36,3.36,0,0,1,2.61,1.15,5.37,5.37,0,0,1,.35.45h0a5.92,5.92,0,0,1,.52,1,3.76,3.76,0,0,1,3.36,2.36,4.09,4.09,0,0,1-.45,3.61C225.64,178.28,222.56,179.37,219.85,179.37Zm1-9.87h0a2.64,2.64,0,0,0-.89.31,6.55,6.55,0,0,0-3.2,2.63,3.73,3.73,0,0,0-.11,3.3,2.7,2.7,0,0,0,2,1.52c2.3.43,5.6-.4,6.83-2.3a2.07,2.07,0,0,0,.26-1.82,1.74,1.74,0,0,0-1.94-1,1,1,0,0,1-1.19-.69,4.07,4.07,0,0,0-.53-1.18h0a2.35,2.35,0,0,0-.19-.25A1.4,1.4,0,0,0,220.84,169.5Z" fill="#093f68"/></g></svg>