<svg xmlns="http://www.w3.org/2000/svg" viewBox="0 0 400 300"><g id="_438_washing_hands_flatline" data-name="#438_washing_hands_flatline"><path d="M181.24,185.42c.12,9.28,1.67,20.08-5.74,27.17-2.11,2-4.77,3.41-6.79,5.51s-3.33,5.39-1.92,8a6.12,6.12,0,0,0,4.88,2.85,14.86,14.86,0,0,0,5.77-.91,3.48,3.48,0,0,1,2-.25c4.56,1.24,1.82,30.86,1.81,35.66v1.72H281.76v-63c0-8.53,8.53-3,9.44-9.14s-15.53-7-8.52-13.4,27.71-23.57,19.79-27.31-26.33,7.54-26.72,2.5,6.18-9.3,0-10.82-18.35,9.14-16.83.61,6.09-16.14,0-14.62-10.66,6.09-10.66-2.43V94.36l-20.55-1.67s1.37,22.07,0,37.3-17-4.87-22.15-7-13.64-1.52-10.59,5.18-3.05,14.26-7.61,11.54-24.67-12.18-24.06-4.86,14.31,7.6,15.83,11.12S149.22,159.23,152,165.32,181.16,179.24,181.24,185.42Z" fill="#00c5f3"/><path d="M291.73,39.9c0,1.35-.36,2.44-6.17,2.44s-14.87-1.09-14.87-2.44,9.06-2.44,14.87-2.44S291.73,38.56,291.73,39.9Z" fill="#fff"/><path d="M285.56,42.84c-2.39,0-15.37-.54-15.37-2.94s13-2.94,15.37-2.94c5.64,0,6.67,1,6.67,2.94S291.2,42.84,285.56,42.84ZM271.24,39.9c.91.84,8,1.94,14.32,1.94,5.67,0,5.67-1,5.67-1.94s0-1.94-5.67-1.94C279.25,38,272.15,39.07,271.24,39.9Z" fill="#231f20"/><path d="M248,39.9c0,1.35.36,2.44,6.17,2.44S269,41.25,269,39.9s-9.06-2.44-14.87-2.44S248,38.56,248,39.9Z" fill="#fff"/><path d="M254.14,42.84c-5.64,0-6.67-1-6.67-2.94s1-2.94,6.67-2.94c2.39,0,15.37.55,15.37,2.94S256.53,42.84,254.14,42.84Zm0-4.88c-5.67,0-5.67,1-5.67,1.94s0,1.94,5.67,1.94c6.31,0,13.41-1.1,14.32-1.94C267.55,39.07,260.45,38,254.14,38Z" fill="#231f20"/><ellipse cx="299.65" cy="80.17" rx="12.72" ry="32.92" fill="#fff"/><path d="M299.65,113.59c-7.41,0-13.22-14.68-13.22-33.42s5.81-33.42,13.22-33.42,13.22,14.68,13.22,33.42S307.07,113.59,299.65,113.59Zm0-65.84c-6.74,0-12.22,14.54-12.22,32.42s5.48,32.42,12.22,32.42,12.22-14.54,12.22-32.42S306.39,47.75,299.65,47.75Z" fill="#231f20"/><rect x="257.87" y="56.8" width="23.96" height="6.9" rx="3.34" fill="#231f20"/><path d="M278.48,64.24H261.22a3.89,3.89,0,0,1-3.89-3.88v-.21a3.9,3.9,0,0,1,3.89-3.89h17.26a3.9,3.9,0,0,1,3.89,3.89v.21A3.89,3.89,0,0,1,278.48,64.24Zm-17.26-6.9a2.81,2.81,0,0,0-2.81,2.81v.21a2.81,2.81,0,0,0,2.81,2.81h17.26a2.81,2.81,0,0,0,2.81-2.81v-.21a2.81,2.81,0,0,0-2.81-2.81Z" fill="#231f20"/><path d="M227.71,87.66s1.37-21.32,7.76-25.27h64.72s2.84.81,2.84,8.52-2.84,10.36-2.84,10.36-48.15-2.06-50.2,0S248.77,91,248.77,91Z" fill="#fff"/><path d="M248.77,91.51h-.08l-21.06-3.35a.49.49,0,0,1-.42-.53c0-.88,1.46-21.62,8-25.67a.48.48,0,0,1,.26-.07h64.72a.34.34,0,0,1,.14,0c.32.09,3.2,1.14,3.2,9s-2.88,10.61-3,10.72a.62.62,0,0,1-.36.14c-18.35-.79-48.1-1.52-49.84-.14-1.54,1.54-1.29,7.26-1.07,9.33a.51.51,0,0,1-.15.42A.53.53,0,0,1,248.77,91.51Zm-20.53-4.27,20,3.18c-.17-2-.45-7.64,1.42-9.51,2.09-2.08,41.76-.52,50.35-.15.53-.64,2.55-3.44,2.55-9.85s-2.08-7.85-2.44-8H235.62C230.11,66.53,228.48,84.17,228.24,87.24Z" fill="#231f20"/><path d="M264.1,185.11C257.7,183,227.25,176,227.25,176s43.85,7,45.68,2.43-7.31-8.52-12.49-9.74-45.5-10.35-43.61-11.88,24.58-4.87,29.53-9.13,3.88-8.84,0-9.44-18.81,4.26-27.33,3.35-18.58-3.35-25.58,2.13a93,93,0,0,1-13.1,8.62l-90-24-2.74,22.44V162.4l86.52,25.29s63.6,24.22,72.21,25.14,10.73-.92,8.6-3.66-33.19-14.66-33.19-14.66,45.68,15.88,44,7.62c-.75-3.75-11.08-7-20.35-9.14,12.21,2.21,27.79,4.61,29.61,2.78C278.11,192.73,270.49,187.25,264.1,185.11Z" fill="#fff"/><path d="M250.32,213.56a38.63,38.63,0,0,1-4-.24c-8.57-.9-69.73-24.18-72.32-25.17L87.49,162.88a.48.48,0,0,1-.36-.48V150.72l2.75-22.5a.47.47,0,0,1,.21-.36.54.54,0,0,1,.41-.07l89.79,24a93.83,93.83,0,0,0,12.85-8.48c6.12-4.79,14.57-3.69,22-2.71,1.33.17,2.64.34,3.91.48,4.86.52,12-.9,17.71-2,4.42-.88,7.92-1.58,9.64-1.31a4.19,4.19,0,0,1,3.59,2.95c.64,2.26-.61,5-3.34,7.37-3.21,2.76-13.08,5-21,6.84a78.36,78.36,0,0,0-8.13,2.09c1.82,1,10.78,3.75,40.79,10.69l2.23.52c4.07,1,10.8,3.66,12.62,7.17a3.73,3.73,0,0,1,.21,3.25c-1.35,3.39-20.93,1.4-34.52-.42,9.35,2.22,21.61,5.2,25.39,6.46,5.13,1.71,11.14,5.57,11.91,8.84a2.72,2.72,0,0,1-.75,2.65c-.51.5-1.91,1.9-20-.94,6.78,2.23,10.44,4.52,10.91,6.85a2,2,0,0,1-.63,2c-.81.71-3.27,2.85-24.08-2.87-2-.55-4-1.13-5.91-1.7,8.7,3.56,18.45,7.8,19.69,9.39,1.1,1.42,1,2.4.64,3C255.36,213,253.46,213.56,250.32,213.56ZM88.13,162l86.16,25.18c.68.25,63.68,24.22,72.12,25.12,7,.74,8.41-.43,8.71-1s-.13-1.33-.55-1.88c-1.5-1.93-20.55-9.73-33-14.5a.5.5,0,0,1,.34-.94c10.68,3.71,39.23,12.61,43.07,9.26a1,1,0,0,0,.31-1.07c-.32-1.6-3.35-4.88-20-8.75a.5.5,0,0,1-.38-.59.51.51,0,0,1,.58-.39c24.52,4.44,28.57,3.52,29.17,2.92a1.71,1.71,0,0,0,.48-1.71c-.66-2.84-6.36-6.49-11.25-8.12-6.3-2.1-36.5-9.05-36.8-9.12a.5.5,0,0,1,.19-1c24.78,4,44.18,5.14,45.14,2.75a2.8,2.8,0,0,0-.17-2.42c-1.66-3.19-8.22-5.77-12-6.65l-2.23-.52c-41.36-9.57-41.66-10.88-41.82-11.59a.65.65,0,0,1,.24-.65c.75-.61,3.58-1.27,8.92-2.5,7.42-1.7,17.57-4,20.59-6.62,2.43-2.09,3.56-4.46,3-6.33a3.2,3.2,0,0,0-2.77-2.24c-1.55-.24-5.14.47-9.3,1.3-5.79,1.16-13,2.59-18,2.05-1.28-.13-2.59-.31-3.93-.48-7.62-1-15.5-2-21.29,2.51a93.69,93.69,0,0,1-13.17,8.67.5.5,0,0,1-.36,0L90.8,128.91l-2.68,21.87Z" fill="#231f20"/><path d="M170.81,163.55c-.76-4.38,4-8.7,8.3-7.49.2-3.4,4-5.27,7.16-6.43l6-2.18c2.22-.8,4.53-1.63,6.89-1.46s4.8,1.59,5.39,3.88c.35,1.39.15,3.21,1.4,3.91a9.58,9.58,0,0,0,2.3.46,2.54,2.54,0,0,1,1.72,2.83c3.34-4.08,10.14-3.28,14.25,0,2,1.62,3.77,4.18,3.07,6.68-.38,1.33-1.41,2.65-.9,3.93A4.5,4.5,0,0,1,231,172l11.22,2.41c2.48.54,5,1.1,7.1,2.6s3.46,4.18,2.68,6.6-3.34,3.72-5.66,4.76c1.58,2.54,3.05,6.16.85,8.19-1.18,1.09-3,1.21-4.16,2.35-1.31,1.35-1.12,3.5-1.62,5.31-.78,2.85-3.4,4.91-6.22,5.81a27.05,27.05,0,0,1-8.8.81c-3.28,5.5-10.16,8.13-16.55,7.7s-12.33-3.49-17.53-7.23c-1.05-.75-2.18-2.2-1.3-3.16-.27,2.32-3,3.31-5.35,3.73-5.82,1-11.88,1.64-17.61.14s-11.1-5.41-13-11a14.36,14.36,0,0,1,3.86-14.81c-1.84-.64-2.73-2.9-2.42-4.83a10.65,10.65,0,0,1,2.84-5c1.16-1.3,3.31-.93,4-1.7s.47-3.61.92-4.75C164.61,168.84,170.65,162.62,170.81,163.55Z" fill="#fff"/><path d="M211.24,219.05c-.48,0-1,0-1.46-.05-5.64-.39-11.46-2.78-17.79-7.32a5.29,5.29,0,0,1-1.44-1.53,8.51,8.51,0,0,1-4.83,2.18c-5.05.91-11.64,1.75-17.82.14-6.44-1.69-11.55-6-13.33-11.35A14.89,14.89,0,0,1,158,186.29a5.09,5.09,0,0,1-2-5,11,11,0,0,1,3-5.3,4.67,4.67,0,0,1,2.74-1.27,2.76,2.76,0,0,0,1.25-.43,5.91,5.91,0,0,0,.46-2.38,9.42,9.42,0,0,1,.36-2.22c.25-.64,4.66-5.63,6.49-6.54a7.53,7.53,0,0,1,8.43-7.65c.59-3.42,4.48-5.22,7.42-6.29l6-2.18a17.73,17.73,0,0,1,7.1-1.49c2.34.16,5.16,1.56,5.84,4.26.1.41.16.85.22,1.27.13,1,.26,1.94.95,2.33a2.87,2.87,0,0,0,1.15.25,5.59,5.59,0,0,1,1,.16,3,3,0,0,1,2,2.13c3.74-3.36,10.1-2.42,14.13.82,2.07,1.66,4,4.43,3.23,7.21-.13.43-.31.85-.48,1.26a4.06,4.06,0,0,0-.52,2,5,5,0,0,1,4.68,4.34l10.86,2.33c2.39.52,5.11,1.1,7.28,2.68,2,1.47,3.77,4.34,2.87,7.16-.78,2.41-3.14,3.77-5.42,4.83,1.36,2.33,2.9,6.09.47,8.34a6.82,6.82,0,0,1-2.18,1.22,5.83,5.83,0,0,0-2,1.11,5.62,5.62,0,0,0-1.15,3.27,16.19,16.19,0,0,1-.34,1.82,9.66,9.66,0,0,1-6.56,6.16,26.21,26.21,0,0,1-8.67.83C223.63,216.11,217.73,219.05,211.24,219.05Zm-20-9.88a3.6,3.6,0,0,0,1.37,1.7c6.17,4.42,11.83,6.76,17.28,7.13,6.68.45,13.14-2.54,16.08-7.46a.45.45,0,0,1,.44-.24,26.67,26.67,0,0,0,8.64-.78c2.33-.75,5.1-2.58,5.89-5.47a13.26,13.26,0,0,0,.32-1.71,6.47,6.47,0,0,1,1.42-3.81,6.64,6.64,0,0,1,2.3-1.35,6,6,0,0,0,1.88-1c2.09-1.92.31-5.56-.93-7.56a.49.49,0,0,1-.06-.41.54.54,0,0,1,.28-.31c2.34-1.05,4.68-2.26,5.38-4.46s-.76-4.77-2.5-6c-2-1.45-4.6-2-6.9-2.51l-11.23-2.41a.49.49,0,0,1-.39-.49,4,4,0,0,0-4.06-3.75.48.48,0,0,1-.49-.32,4,4,0,0,1,.44-3.11,8.9,8.9,0,0,0,.43-1.13c.65-2.31-1.07-4.7-2.89-6.16-3.89-3.13-10.41-3.94-13.55-.11a.49.49,0,0,1-.6.14.5.5,0,0,1-.28-.55,2,2,0,0,0-1.37-2.25,4.46,4.46,0,0,0-.85-.12,3.85,3.85,0,0,1-1.56-.38c-1.12-.64-1.29-1.93-1.44-3.07a11.39,11.39,0,0,0-.2-1.15c-.53-2.12-2.89-3.37-4.94-3.51-2.29-.17-4.63.69-6.68,1.43l-6,2.18c-2.84,1-6.64,2.78-6.83,6a.52.52,0,0,1-.21.38.54.54,0,0,1-.43.07,6.45,6.45,0,0,0-7.67,6.93h0a.48.48,0,0,1-.4.57.41.41,0,0,1-.29,0,33.37,33.37,0,0,0-5.92,6,8.59,8.59,0,0,0-.29,1.94,5.5,5.5,0,0,1-.72,3,3.16,3.16,0,0,1-1.79.75,3.81,3.81,0,0,0-2.19.95,10.07,10.07,0,0,0-2.72,4.8c-.27,1.65.44,3.7,2.09,4.28a.48.48,0,0,1,.32.37.48.48,0,0,1-.15.47,13.86,13.86,0,0,0-3.72,14.28c1.67,5,6.52,9.1,12.63,10.7s12.44.74,17.39-.16c1.76-.31,3.83-1,4.63-2.34a1.61,1.61,0,0,1,.44-1.23.49.49,0,0,1,.57-.12.5.5,0,0,1,.29.52A3.45,3.45,0,0,1,191.2,209.17Z" fill="#231f20"/><path d="M209.79,192.73s33.3-15,34.92-21.12-26,3.66-39,7.72c0,0,36.54-13.1,33.3-18.94s-53.6,10.82-53.6,10.82,15.95-11.49,16.09-18.89-10.21.21-14.16,3.86-24.67,7-34.72,12.49S138,186,132.84,187.55c-3.93,1.16-32,1.61-45.21,1.75V234c10.54-3,49.89-14,55.16-14,6.09,0,29.64,2,47.51,0s51.57-19.89,52-24.36c.38-4.15-19.21,2.91-22,3.94,3-1.12,25.3-9.57,26.05-14.5C247.15,179.73,226,186.64,209.79,192.73Z" fill="#fff"/><path d="M87.63,234.45a.51.51,0,0,1-.3-.1.51.51,0,0,1-.2-.4V189.3a.51.51,0,0,1,.49-.5c12.25-.13,41.17-.58,45.08-1.73,2.2-.65,4.43-3.47,7-6.75,3.18-4,7.13-9,12.7-12.09,5.12-2.79,13-5,19.92-7,6.59-1.88,12.82-3.66,14.7-5.39.09-.09,9.45-8.66,13.43-6.88,1.08.49,1.61,1.62,1.57,3.39-.11,5.86-9.44,13.93-13.94,17.49,11.35-3.65,48.38-15.07,51.38-9.67a2.17,2.17,0,0,1,.09,1.93c-1.35,3.61-11.31,8.58-20.05,12.34,12.94-4,23-6.61,25.27-4.48a1.7,1.7,0,0,1,.42,1.8c-1.11,4.16-15.73,12-25.79,17,15.56-5.4,24.56-7.2,26.81-5.37a1.76,1.76,0,0,1,.62,1.74c-.16,1-1.76,4.26-14.36,10,4.37-1.14,8.42-1.79,9.74-.77a1.39,1.39,0,0,1,.56,1.31c-.44,4.86-34.31,22.75-52.41,24.81-13.61,1.55-30.43.75-40.48.27-3.15-.15-5.63-.27-7.09-.27-4.1,0-31.11,7.23-55,14Zm.5-44.65v43.49c12.33-3.49,49.47-13.86,54.66-13.86,1.48,0,4,.12,7.13.27,10,.48,26.8,1.27,40.32-.26,7.82-.89,19.92-5.09,32.37-11.22,11.8-5.82,19-11,19.17-12.69a.47.47,0,0,0-.17-.43c-1.76-1.35-12.2,1.58-21.16,4.88a.5.5,0,0,1-.64-.3.5.5,0,0,1,.29-.64h0c9.28-3.46,25.15-10.31,25.73-14.1a.79.79,0,0,0-.26-.82c-2.3-1.86-15.28,1.45-35.62,9.08a.5.5,0,0,1-.38-.93c9.2-4.15,33.37-16,34.65-20.79a.75.75,0,0,0-.14-.82c-2.49-2.36-21.22,3.68-32.41,7.29-2.12.69-4.09,1.32-5.8,1.86a.5.5,0,0,1-.32-.95c10.64-3.82,31.25-12.31,33.06-17.13a1.22,1.22,0,0,0,0-1.09c-2.22-4-33.69,4.66-53,11a.5.5,0,0,1-.45-.88c.16-.11,15.75-11.43,15.89-18.49,0-1.33-.3-2.15-1-2.46-2.36-1.06-8.64,3.28-12.35,6.7-2.05,1.89-8.09,3.62-15.1,5.62s-14.69,4.2-19.71,6.94c-5.4,2.94-9.27,7.87-12.39,11.83-2.68,3.41-5,6.35-7.51,7.09C129.14,189.16,103.46,189.62,88.13,189.8Z" fill="#231f20"/><circle cx="258.92" cy="157.8" r="5.48" fill="#fff"/><path d="M258.92,163.78a6,6,0,1,1,6-6A6,6,0,0,1,258.92,163.78Zm0-11a5,5,0,1,0,5,5A5,5,0,0,0,258.92,152.82Z" fill="#231f20"/><path d="M211.22,234.27c1.49-6.22-5.51-12.6-11-8.17-4,3.25-4.44,11.84,1.68,12.86C205.67,239.59,210.32,238,211.22,234.27Z" fill="#fff"/><path d="M203.52,239.59a10.76,10.76,0,0,1-1.71-.14A5.76,5.76,0,0,1,197,235a9.47,9.47,0,0,1,2.91-9.29,6.6,6.6,0,0,1,8-.46,8.6,8.6,0,0,1,3.82,9.13h0C210.88,237.82,207.11,239.59,203.52,239.59Zm.65-14.47a5.76,5.76,0,0,0-3.64,1.37,8.53,8.53,0,0,0-2.57,8.25,4.82,4.82,0,0,0,4,3.73c3.57.59,7.94-.89,8.76-4.32h0a7.72,7.72,0,0,0-3.38-8.05A5.86,5.86,0,0,0,204.17,225.12Z" fill="#231f20"/><path d="M186.73,125.37c-.74-1.52-3.21-2-4.17-.55,1.14-1.65-7.2-4.09-7.57,1.32C174.48,133.5,189.82,131.68,186.73,125.37Z" fill="#fff"/><path d="M180.85,131.42a8.63,8.63,0,0,1-3.47-.68,4.49,4.49,0,0,1-2.89-4.64,3.75,3.75,0,0,1,2.82-3.58c2.11-.59,4.85.2,5.61,1.27l0,0a2.75,2.75,0,0,1,1.62-.34,3.16,3.16,0,0,1,2.62,1.67h0a3.53,3.53,0,0,1-.56,4.25A8.29,8.29,0,0,1,180.85,131.42Zm-2-8.11a4.64,4.64,0,0,0-1.3.17,2.74,2.74,0,0,0-2.1,2.69,3.54,3.54,0,0,0,2.3,3.66c2.53,1.12,6.47.58,8.11-1.12a2.53,2.53,0,0,0,.38-3.12h0a2.13,2.13,0,0,0-1.79-1.11,1.59,1.59,0,0,0-1.52.62h0a.5.5,0,0,1-.7.13.51.51,0,0,1-.12-.7h0s0,0,0-.15A4.59,4.59,0,0,0,178.89,123.31Z" fill="#231f20"/><path d="M190.87,211.22h-.08c-4-.66-4.92-5.89-5.12-8.11a2.63,2.63,0,0,0-.57-1.78,1,1,0,0,0-.82-.21,3.25,3.25,0,0,0-2,1.5l-.32.52c-.69,1.16-1.48,2.47-2.93,2.7a3.29,3.29,0,0,1-3.29-2,8.49,8.49,0,0,1-.55-3.65V186.82a6.53,6.53,0,0,1-.65,1.15,4.41,4.41,0,0,1-4.77,1.91c-1.95-.65-2.95-2.76-3-6.27a102,102,0,0,1,1-15.61.5.5,0,0,1,1,.15,101.1,101.1,0,0,0-1,15.45c0,2.09.45,4.7,2.32,5.34a3.42,3.42,0,0,0,3.63-1.54,11,11,0,0,0,1.48-4.39.5.5,0,0,1,1,.1v17a7.71,7.71,0,0,0,.46,3.23,2.29,2.29,0,0,0,2.22,1.46c1-.16,1.63-1.21,2.24-2.22l.33-.55a4.26,4.26,0,0,1,2.66-2,2,2,0,0,1,1.61.43,3.45,3.45,0,0,1,.93,2.46c.17,1.91.89,6.3,3.9,7.13,1.17-2.8,1.4-6,1.62-9,0-.66.09-1.31.14-2a67.08,67.08,0,0,1,3.9-17.51,5.89,5.89,0,0,1,1.47-2.5,6.07,6.07,0,0,1,2-1,8.38,8.38,0,0,0,1.06-.43,6.07,6.07,0,0,0,2.95-4.57,19.12,19.12,0,0,0-.32-5.93.5.5,0,0,1,1-.15,19.74,19.74,0,0,1,.31,6.24,7,7,0,0,1-3.48,5.3,9,9,0,0,1-1.17.48,5.24,5.24,0,0,0-1.67.84,4.88,4.88,0,0,0-1.2,2.09,66.2,66.2,0,0,0-3.83,17.25l-.15,1.94c-.23,3.27-.47,6.66-1.86,9.71A.49.49,0,0,1,190.87,211.22Z" fill="#d1d3d4"/><path d="M161.31,163.42h-.2a3.89,3.89,0,0,1-3.07-2.71,13.59,13.59,0,0,1-.52-1.77,11,11,0,0,0-.55-1.82.88.88,0,0,0-.26-.41c-.16-.1-.43,0-.82.11-.19.06-.38.13-.56.17a3,3,0,0,1-3-1.52,6.62,6.62,0,0,1-.76-3.08,31.21,31.21,0,0,1,.17-5.72.5.5,0,0,1,.56-.44.49.49,0,0,1,.43.56,31,31,0,0,0-.17,5.53,5.71,5.71,0,0,0,.63,2.64,2,2,0,0,0,1.94,1,3.88,3.88,0,0,0,.45-.14,1.93,1.93,0,0,1,1.66,0,1.88,1.88,0,0,1,.67.88,13,13,0,0,1,.59,2,13.76,13.76,0,0,0,.48,1.65,3,3,0,0,0,2.21,2.07,3.33,3.33,0,0,0,2.47-1.34,13.32,13.32,0,0,0,3.55-7.77.5.5,0,0,1,.55-.45.5.5,0,0,1,.44.55,14.26,14.26,0,0,1-3.81,8.35A4.33,4.33,0,0,1,161.31,163.42Z" fill="#d1d3d4"/><rect x="222.68" y="87.66" width="29.51" height="10.05" rx="5.02" fill="#fff"/><path d="M247.16,98.21H227.71a5.53,5.53,0,1,1,0-11h19.45a5.53,5.53,0,1,1,0,11Zm-19.45-10a4.53,4.53,0,1,0,0,9h19.45a4.53,4.53,0,1,0,0-9Z" fill="#231f20"/><rect x="263.95" y="51.02" width="11.81" height="5.79" fill="#fff"/><path d="M275.75,57.3H264a.5.5,0,0,1-.5-.5V51a.5.5,0,0,1,.5-.5h11.8a.5.5,0,0,1,.5.5V56.8A.5.5,0,0,1,275.75,57.3Zm-11.3-1h10.8V51.52h-10.8Z" fill="#231f20"/><path d="M269.85,34.88h0A3.12,3.12,0,0,1,273,38V51a0,0,0,0,1,0,0h-6.24a0,0,0,0,1,0,0V38A3.12,3.12,0,0,1,269.85,34.88Z" fill="#fff"/><path d="M273,51.52h-6.24a.5.5,0,0,1-.5-.5V38a3.62,3.62,0,0,1,7.24,0V51A.5.5,0,0,1,273,51.52Zm-5.74-1h5.24V38a2.62,2.62,0,0,0-5.24,0Z" fill="#231f20"/><path d="M302.45,205.18c1.33,1.62.2,4.29-1.69,5.21s-4.13.57-6.16.06c-1.48-.37-3.09-.93-3.82-2.27-1.17-2.11.77-4.86,3.11-5.44s4.78.3,7,1.16C303.44,204.86,300.75,203.1,302.45,205.18Z" fill="#00c5f3"/><path d="M220.55,251.53a.5.5,0,0,1-.5-.5V231.86a.5.5,0,0,1,1,0V251A.5.5,0,0,1,220.55,251.53Z" fill="#fff"/><path d="M243.39,243.78a.5.5,0,0,1-.5-.5V223.79a.5.5,0,1,1,1,0v19.49A.5.5,0,0,1,243.39,243.78Z" fill="#fff"/><path d="M243.39,125.32a.5.5,0,0,1-.5-.5V107.15a.5.5,0,1,1,1,0v17.67A.5.5,0,0,1,243.39,125.32Z" fill="#fff"/><path d="M234.86,130.19a.51.51,0,0,1-.5-.5V117.51a.5.5,0,0,1,.5-.5.5.5,0,0,1,.5.5v12.18A.5.5,0,0,1,234.86,130.19Z" fill="#fff"/><path d="M261.76,251.58a.5.5,0,0,1-.5-.5v-7.8a.5.5,0,0,1,.5-.5.5.5,0,0,1,.5.5v7.8A.5.5,0,0,1,261.76,251.58Z" fill="#fff"/><path d="M197.2,253.6a.5.5,0,0,1-.5-.5v-9.82a.5.5,0,0,1,.5-.5.5.5,0,0,1,.5.5v9.82A.5.5,0,0,1,197.2,253.6Z" fill="#fff"/><polygon points="87.63 239.17 132.15 227.96 123 184.56 87.63 184.06 87.63 239.17" fill="#231f20"/><path d="M87.63,239.71a.55.55,0,0,1-.33-.11.56.56,0,0,1-.21-.43V184.06a.55.55,0,0,1,.16-.38.46.46,0,0,1,.39-.15L123,184a.54.54,0,0,1,.52.42l9.15,43.4a.54.54,0,0,1-.4.64l-44.52,11.2Zm.54-55.1v53.87l43.35-10.91-9-42.47Z" fill="#231f20"/><polygon points="88.81 118.24 87.63 123.1 87.63 168.84 135.46 180.15 145.61 136.5 88.81 118.24" fill="#231f20"/><path d="M135.46,180.69h-.13L87.5,169.36a.55.55,0,0,1-.41-.53V123.1a.5.5,0,0,1,0-.12l1.18-4.87a.52.52,0,0,1,.26-.34.53.53,0,0,1,.43,0L145.77,136a.53.53,0,0,1,.36.63L136,180.27a.55.55,0,0,1-.24.34A.57.57,0,0,1,135.46,180.69ZM88.17,168.41l46.89,11.09L145,136.86,89.2,118.93l-1,4.24Z" fill="#231f20"/></g></svg>